G04 start of page 8 for group -4079 idx -4079 *
G04 Title: (unknown), topsilk *
G04 Creator: pcb 20140316 *
G04 CreationDate: Ne 28. leden 2018, 18:47:39 GMT UTC *
G04 For: mario *
G04 Format: Gerber/RS-274X *
G04 PCB-Dimensions (mil): 3976.38 2992.13 *
G04 PCB-Coordinate-Origin: lower left *
%MOIN*%
%FSLAX25Y25*%
%LNTOPSILK*%
%ADD74C,0.0200*%
%ADD73C,0.0100*%
G54D73*X395000Y4213D02*X375000D01*
X395000D02*Y24213D01*
Y4213D02*X0D01*
Y299213D01*
X395000D01*
Y4213D01*
X212500Y65713D02*X214500D01*
X215000Y65213D01*
Y64213D01*
X214500Y63713D02*X215000Y64213D01*
X213000Y63713D02*X214500D01*
X213000Y65713D02*Y61713D01*
X213800Y63713D02*X215000Y61713D01*
X216200Y63713D02*X218200Y61713D01*
X216200D02*X218200Y63713D01*
X221200Y65713D02*X222200D01*
X221700D02*Y61713D01*
X221200D02*X222200D01*
X223400Y65713D02*Y61713D01*
Y65713D02*X225900Y61713D01*
Y65713D02*Y61713D01*
X212500Y53213D02*X214500D01*
X213500D02*Y49213D01*
X215700Y51213D02*X217700Y49213D01*
X215700D02*X217700Y51213D01*
X220700Y52713D02*Y49713D01*
Y52713D02*X221200Y53213D01*
X222200D01*
X222700Y52713D01*
Y49713D01*
X222200Y49213D02*X222700Y49713D01*
X221200Y49213D02*X222200D01*
X220700Y49713D02*X221200Y49213D01*
X223900Y53213D02*Y49713D01*
X224400Y49213D01*
X225400D01*
X225900Y49713D01*
Y53213D02*Y49713D01*
X227100Y53213D02*X229100D01*
X228100D02*Y49213D01*
X28386Y203740D02*Y144685D01*
X-1535Y203740D02*X28386D01*
X-1535D02*Y144685D01*
X28386D01*
X45000Y174213D02*Y166713D01*
Y151713D02*Y144213D01*
X47500Y166713D02*Y151713D01*
X42500D02*X47500D01*
X42500Y166713D02*Y151713D01*
Y166713D02*X47500D01*
X35000Y161713D02*Y151713D01*
Y191713D02*Y181713D01*
X31700D02*Y161713D01*
Y181713D02*X38300D01*
Y161713D01*
X31700D02*X38300D01*
X28386Y284425D02*Y244370D01*
X-1535Y284425D02*X28386D01*
X-1535D02*Y244370D01*
X28386D01*
X60000Y254213D02*G75*G03X60000Y254213I0J-10000D01*G01*
G54D74*X55000Y280898D02*X95000D01*
Y262898D01*
X55000D01*
Y280898D01*
X95000D01*
Y274898D01*
X55000D01*
Y280898D01*
G54D73*X68000D02*Y274898D01*
X82000Y280898D02*Y274898D01*
X366614Y278740D02*Y219685D01*
X396535D01*
Y278740D02*Y219685D01*
X366614Y278740D02*X396535D01*
X366614Y183740D02*Y124685D01*
X396535D01*
Y183740D02*Y124685D01*
X366614Y183740D02*X396535D01*
X335000Y284213D02*X355000D01*
X335000D02*Y274213D01*
X355000D01*
Y284213D02*Y274213D01*
X345000Y284213D02*Y274213D01*
X355000D01*
X315000Y264213D02*Y244213D01*
X355000D01*
Y264213D01*
X315000D02*X330000D01*
X340000D02*X355000D01*
X330000D02*G75*G03X340000Y264213I5000J0D01*G01*
X315000Y244213D02*Y224213D01*
X355000D01*
Y244213D01*
X315000D02*X330000D01*
X340000D02*X355000D01*
X330000D02*G75*G03X340000Y244213I5000J0D01*G01*
X355000Y171713D02*Y164213D01*
Y194213D02*Y186713D01*
X352500D02*Y171713D01*
Y186713D02*X357500D01*
Y171713D01*
X352500D02*X357500D01*
X345828Y145041D02*G75*G03X354172Y145041I4172J4172D01*G01*
X354172Y153385D02*G75*G03X345828Y153385I-4172J-4172D01*G01*
X344414Y143626D02*G75*G03X355586Y143626I5586J5586D01*G01*
X355586Y154799D02*G75*G03X344414Y154799I-5586J-5586D01*G01*
X345828Y125041D02*G75*G03X354172Y125041I4172J4172D01*G01*
X354172Y133385D02*G75*G03X345828Y133385I-4172J-4172D01*G01*
X344414Y123626D02*G75*G03X355586Y123626I5586J5586D01*G01*
X355586Y134799D02*G75*G03X344414Y134799I-5586J-5586D01*G01*
X345000Y171713D02*Y164213D01*
Y194213D02*Y186713D01*
X342500D02*Y171713D01*
Y186713D02*X347500D01*
Y171713D01*
X342500D02*X347500D01*
X150000Y79213D02*G75*G03X150000Y79213I10000J0D01*G01*
X207500Y69213D02*Y39213D01*
X197500Y69213D02*X207500D01*
X197500D02*Y39213D01*
X207500D01*
X197500Y49213D02*X207500D01*
X197500D02*Y39213D01*
X180000Y129213D02*Y89213D01*
X140000Y129213D02*X180000D01*
X140000D02*Y89213D01*
X165000D02*X180000D01*
X140000D02*X155000D01*
X165000D02*G75*G03X155000Y89213I-5000J0D01*G01*
X150000Y154213D02*G75*G03X150000Y154213I10000J0D01*G01*
Y174213D02*G75*G03X150000Y174213I10000J0D01*G01*
G54D74*X185000D02*Y154213D01*
X175000Y174213D02*Y154213D01*
G75*G03X185000Y154213I5000J0D01*G01*
Y174213D02*G75*G03X175000Y174213I-5000J0D01*G01*
G54D73*X66000Y73213D02*X104000D01*
Y35213D01*
X66000D02*X104000D01*
X66000Y73213D02*Y35213D01*
X132000Y111213D02*Y97213D01*
X132071Y111284D02*G75*G03X132071Y97142I-7071J-7071D01*G01*
X115000Y154213D02*Y134213D01*
X125000D01*
Y154213D02*Y134213D01*
X115000Y154213D02*X125000D01*
X115000Y144213D02*X125000D01*
Y154213D02*Y144213D01*
X75000Y94213D02*X82500D01*
X97500D02*X105000D01*
X82500Y96713D02*X97500D01*
Y91713D01*
X82500D02*X97500D01*
X82500Y96713D02*Y91713D01*
X97500Y84213D02*X105000D01*
X75000D02*X82500D01*
Y81713D02*X97500D01*
X82500Y86713D02*Y81713D01*
Y86713D02*X97500D01*
Y81713D01*
X190000Y259213D02*Y119213D01*
X230000D01*
Y259213D01*
X190000D02*X205000D01*
X215000D02*X230000D01*
X205000D02*G75*G03X215000Y259213I5000J0D01*G01*
X240000Y159213D02*G75*G03X240000Y159213I0J10000D01*G01*
X197500Y284213D02*X247500D01*
X197500D02*Y274213D01*
X247500D01*
Y284213D02*Y274213D01*
X237500Y284213D02*Y274213D01*
X247500D01*
X182500Y264213D02*X190000D01*
X205000D02*X212500D01*
X190000Y266713D02*X205000D01*
Y261713D01*
X190000D02*X205000D01*
X190000Y266713D02*Y261713D01*
X245000Y204213D02*X252500D01*
X267500D02*X275000D01*
X252500Y206713D02*X267500D01*
Y201713D01*
X252500D01*
Y206713D01*
X295000Y159213D02*X315000D01*
X295000D02*Y149213D01*
X315000D01*
Y159213D02*Y149213D01*
X305000Y159213D02*Y149213D01*
X315000D01*
X335000Y189213D02*Y169213D01*
X295000Y189213D02*X335000D01*
X295000D02*Y169213D01*
X320000D02*X335000D01*
X295000D02*X310000D01*
X320000D02*G75*G03X310000Y169213I-5000J0D01*G01*
X335000Y209213D02*Y189213D01*
X295000Y209213D02*X335000D01*
X295000D02*Y189213D01*
X320000D02*X335000D01*
X295000D02*X310000D01*
X320000D02*G75*G03X310000Y189213I-5000J0D01*G01*
X245000Y216713D02*X252500D01*
X267500D02*X275000D01*
X252500Y219213D02*X267500D01*
Y214213D01*
X252500D02*X267500D01*
X252500Y219213D02*Y214213D01*
X245000Y244213D02*X252500D01*
X267500D02*X275000D01*
X252500Y246713D02*X267500D01*
Y241713D01*
X252500D01*
Y246713D01*
X245000Y229213D02*X252500D01*
X267500D02*X275000D01*
X252500Y231713D02*X267500D01*
Y226713D01*
X252500D01*
Y231713D01*
X294172Y238385D02*G75*G03X285828Y238385I-4172J-4172D01*G01*
X285828Y230041D02*G75*G03X294172Y230041I4172J4172D01*G01*
X295586Y239799D02*G75*G03X284414Y239799I-5586J-5586D01*G01*
X284414Y228626D02*G75*G03X295586Y228626I5586J5586D01*G01*
X294172Y265885D02*G75*G03X285828Y265885I-4172J-4172D01*G01*
X285828Y257541D02*G75*G03X294172Y257541I4172J4172D01*G01*
X295586Y267299D02*G75*G03X284414Y267299I-5586J-5586D01*G01*
X284414Y256126D02*G75*G03X295586Y256126I5586J5586D01*G01*
X270000Y99213D02*Y19213D01*
X230000Y99213D02*X270000D01*
X230000D02*Y19213D01*
X255000D02*X270000D01*
X230000D02*X245000D01*
X255000D02*G75*G03X245000Y19213I-5000J0D01*G01*
X220000D02*G75*G03X220000Y19213I0J10000D01*G01*
X302500Y29213D02*G75*G03X302500Y29213I0J10000D01*G01*
X282500Y46713D02*G75*G03X282500Y46713I0J10000D01*G01*
X277500Y76713D02*G75*G03X277500Y76713I10000J0D01*G01*
X177500Y251713D02*Y241713D01*
Y221713D02*Y211713D01*
X180800Y241713D02*Y221713D01*
X174200D02*X180800D01*
X174200Y241713D02*Y221713D01*
Y241713D02*X180800D01*
X282500Y41713D02*G75*G03X282500Y41713I0J-15000D01*G01*
X60000Y134213D02*X100000D01*
Y174213D02*Y134213D01*
X60000Y174213D02*X100000D01*
X60000Y149213D02*Y134213D01*
Y174213D02*Y159213D01*
Y149213D02*G75*G03X60000Y159213I0J5000D01*G01*
X90000Y184213D02*G75*G03X90000Y184213I-10000J0D01*G01*
X50000Y204213D02*Y184213D01*
X60000D01*
Y204213D01*
X50000D01*
Y194213D02*X60000D01*
Y204213D01*
X120000Y276713D02*Y256713D01*
X130000D01*
Y276713D02*Y256713D01*
X120000Y276713D02*X130000D01*
X120000Y266713D02*X130000D01*
Y276713D02*Y266713D01*
X90000Y254213D02*G75*G03X90000Y254213I0J-10000D01*G01*
X140828Y230041D02*G75*G03X149172Y230041I4172J4172D01*G01*
X149172Y238385D02*G75*G03X140828Y238385I-4172J-4172D01*G01*
X139414Y228626D02*G75*G03X150586Y228626I5586J5586D01*G01*
X150586Y239799D02*G75*G03X139414Y239799I-5586J-5586D01*G01*
X146672Y255041D02*G75*G03X146672Y263385I-4172J4172D01*G01*
X138328Y263385D02*G75*G03X138328Y255041I4172J-4172D01*G01*
X148086Y253626D02*G75*G03X148086Y264799I-5586J5586D01*G01*
X136914Y264799D02*G75*G03X136914Y253626I5586J-5586D01*G01*
X162500Y259213D02*G75*G03X162500Y259213I0J-10000D01*G01*
Y234213D02*Y224213D01*
Y204213D02*Y194213D01*
X165800Y224213D02*Y204213D01*
X159200D02*X165800D01*
X159200Y224213D02*Y204213D01*
Y224213D02*X165800D01*
X90000Y124213D02*G75*G03X90000Y124213I10000J0D01*G01*
X75000Y106713D02*X82500D01*
X97500D02*X105000D01*
X82500Y109213D02*X97500D01*
Y104213D01*
X82500D01*
Y109213D01*
X100000Y204213D02*X107500D01*
X122500D02*X130000D01*
X107500Y206713D02*X122500D01*
Y201713D01*
X107500D02*X122500D01*
X107500Y206713D02*Y201713D01*
X115000Y166713D02*Y159213D01*
Y189213D02*Y181713D01*
X112500D02*Y166713D01*
Y181713D02*X117500D01*
Y166713D01*
X112500D02*X117500D01*
X130000D02*Y159213D01*
Y189213D02*Y181713D01*
X127500D02*Y166713D01*
Y181713D02*X132500D01*
Y166713D01*
X127500D02*X132500D01*
X125000Y154213D02*Y134213D01*
X135000D01*
Y154213D02*Y134213D01*
X125000Y154213D02*X135000D01*
X125000Y144213D02*X135000D01*
Y154213D02*Y144213D01*
X23500Y136028D02*Y135228D01*
Y136028D02*X27000D01*
X27500Y135528D02*X27000Y136028D01*
X27500Y135528D02*Y135028D01*
X27000Y134528D02*X27500Y135028D01*
X26500Y134528D02*X27000D01*
X24300Y137228D02*X23500Y138028D01*
X27500D01*
Y138728D02*Y137228D01*
X60000Y133213D02*Y129713D01*
X60500Y129213D01*
X61500D01*
X62000Y129713D01*
Y133213D02*Y129713D01*
X63200Y132713D02*X63700Y133213D01*
X65200D01*
X65700Y132713D01*
Y131713D01*
X63200Y129213D02*X65700Y131713D01*
X63200Y129213D02*X65700D01*
X56500Y164213D02*Y162213D01*
X56000Y161713D01*
X55000D02*X56000D01*
X54500Y162213D02*X55000Y161713D01*
X54500Y163713D02*Y162213D01*
X52500Y163713D02*X56500D01*
X54500Y162913D02*X52500Y161713D01*
X55700Y160513D02*X56500Y159713D01*
X52500D02*X56500D01*
X52500Y160513D02*Y159013D01*
X33000Y138213D02*Y136213D01*
Y138213D02*X33500Y138713D01*
X34500D01*
X35000Y138213D02*X34500Y138713D01*
X35000Y138213D02*Y136713D01*
X33000D02*X37000D01*
X35000Y137513D02*X37000Y138713D01*
X33800Y139913D02*X33000Y140713D01*
X37000D01*
Y141413D02*Y139913D01*
X33000Y144113D02*X33500Y144613D01*
X33000Y144113D02*Y143113D01*
X33500Y142613D02*X33000Y143113D01*
X33500Y142613D02*X36500D01*
X37000Y143113D01*
X34800Y144113D02*X35300Y144613D01*
X34800Y144113D02*Y142613D01*
X37000Y144113D02*Y143113D01*
Y144113D02*X36500Y144613D01*
X35300D02*X36500D01*
X40000Y278713D02*Y277413D01*
X39300Y276713D02*X40000Y277413D01*
X36700Y276713D02*X39300D01*
X36700D02*X36000Y277413D01*
Y278713D02*Y277413D01*
X36500Y279913D02*X39500D01*
X36500D02*X36000Y280413D01*
Y281413D02*Y280413D01*
Y281413D02*X36500Y281913D01*
X39500D01*
X40000Y281413D02*X39500Y281913D01*
X40000Y281413D02*Y280413D01*
X39500Y279913D02*X40000Y280413D01*
X36000Y283113D02*X40000D01*
X36000D02*X40000Y285613D01*
X36000D02*X40000D01*
X36000Y286813D02*X40000D01*
X36000D02*X40000Y289313D01*
X36000D02*X40000D01*
X36800Y290513D02*X36000Y291313D01*
X40000D01*
Y292013D02*Y290513D01*
X51500Y213513D02*Y212713D01*
X48000D02*X51500D01*
X47500Y213213D02*X48000Y212713D01*
X47500Y213713D02*Y213213D01*
X48000Y214213D02*X47500Y213713D01*
X48000Y214213D02*X48500D01*
X51500Y211513D02*Y209513D01*
X49500Y211513D02*X51500D01*
X49500D02*X50000Y211013D01*
Y210013D01*
X49500Y209513D01*
X48000D02*X49500D01*
X47500Y210013D02*X48000Y209513D01*
X47500Y211013D02*Y210013D01*
X48000Y211513D02*X47500Y211013D01*
X45000Y258513D02*Y257213D01*
X45700Y259213D02*X45000Y258513D01*
X45700Y259213D02*X48300D01*
X49000Y258513D01*
Y257213D01*
X48200Y256013D02*X49000Y255213D01*
X45000D02*X49000D01*
X45000Y256013D02*Y254513D01*
X55000Y287898D02*Y284398D01*
X55500Y283898D01*
X56500D01*
X57000Y284398D01*
Y287898D02*Y284398D01*
X58200Y287098D02*X59000Y287898D01*
Y283898D01*
X58200D02*X59700D01*
X93000Y194213D02*X94300D01*
X95000Y193513D02*X94300Y194213D01*
X95000Y193513D02*Y190913D01*
X94300Y190213D01*
X93000D02*X94300D01*
X91800Y190713D02*X91300Y190213D01*
X90300D02*X91300D01*
X90300D02*X89800Y190713D01*
X90300Y194213D02*X89800Y193713D01*
X90300Y194213D02*X91300D01*
X91800Y193713D02*X91300Y194213D01*
X90300Y192013D02*X91300D01*
X89800Y191513D02*Y190713D01*
Y193713D02*Y192513D01*
X90300Y192013D01*
X89800Y191513D02*X90300Y192013D01*
X110000Y200713D02*X112000D01*
X112500Y200213D01*
Y199213D01*
X112000Y198713D02*X112500Y199213D01*
X110500Y198713D02*X112000D01*
X110500Y200713D02*Y196713D01*
X111300Y198713D02*X112500Y196713D01*
X114200D02*X116200Y200713D01*
X113700D02*X116200D01*
X102500Y258513D02*Y257213D01*
X103200Y259213D02*X102500Y258513D01*
X103200Y259213D02*X105800D01*
X106500Y258513D01*
Y257213D01*
X106000Y256013D02*X106500Y255513D01*
Y254013D01*
X106000Y253513D01*
X105000D02*X106000D01*
X102500Y256013D02*X105000Y253513D01*
X102500Y256013D02*Y253513D01*
X85700Y114213D02*X87000D01*
X85000Y114913D02*X85700Y114213D01*
X85000Y117513D02*Y114913D01*
Y117513D02*X85700Y118213D01*
X87000D01*
X88200Y117413D02*X89000Y118213D01*
Y114213D01*
X88200D02*X89700D01*
X90900Y115713D02*X92900Y118213D01*
X90900Y115713D02*X93400D01*
X92900Y118213D02*Y114213D01*
X116000Y74713D02*X118000D01*
X116000D02*X115500Y75213D01*
Y76213D02*Y75213D01*
X116000Y76713D02*X115500Y76213D01*
X116000Y76713D02*X117500D01*
Y78713D02*Y74713D01*
X116700Y76713D02*X115500Y78713D01*
X114300Y75513D02*X113500Y74713D01*
Y78713D02*Y74713D01*
X112800Y78713D02*X114300D01*
X111100D02*X109100Y74713D01*
X111600D01*
X62000Y106213D02*X64000D01*
X64500Y105713D01*
Y104713D01*
X64000Y104213D02*X64500Y104713D01*
X62500Y104213D02*X64000D01*
X62500Y106213D02*Y102213D01*
X63300Y104213D02*X64500Y102213D01*
X66200D02*X67700Y104213D01*
Y105713D02*Y104213D01*
X67200Y106213D02*X67700Y105713D01*
X66200Y106213D02*X67200D01*
X65700Y105713D02*X66200Y106213D01*
X65700Y105713D02*Y104713D01*
X66200Y104213D01*
X67700D01*
X59500Y93713D02*X61500D01*
X62000Y93213D01*
Y92213D01*
X61500Y91713D02*X62000Y92213D01*
X60000Y91713D02*X61500D01*
X60000Y93713D02*Y89713D01*
X60800Y91713D02*X62000Y89713D01*
X63200Y92913D02*X64000Y93713D01*
Y89713D01*
X63200D02*X64700D01*
X65900Y90213D02*X66400Y89713D01*
X65900Y91013D02*Y90213D01*
Y91013D02*X66600Y91713D01*
X67200D01*
X67900Y91013D01*
Y90213D01*
X67400Y89713D02*X67900Y90213D01*
X66400Y89713D02*X67400D01*
X65900Y92413D02*X66600Y91713D01*
X65900Y93213D02*Y92413D01*
Y93213D02*X66400Y93713D01*
X67400D01*
X67900Y93213D01*
Y92413D01*
X67200Y91713D02*X67900Y92413D01*
X74000Y44213D02*Y42213D01*
X73500Y41713D01*
X72500D02*X73500D01*
X72000Y42213D02*X72500Y41713D01*
X72000Y43713D02*Y42213D01*
X70000Y43713D02*X74000D01*
X72000Y42913D02*X70000Y41713D01*
X70500Y40513D02*X70000Y40013D01*
X70500Y40513D02*X71300D01*
X72000Y39813D01*
Y39213D01*
X71300Y38513D01*
X70500D02*X71300D01*
X70000Y39013D02*X70500Y38513D01*
X70000Y40013D02*Y39013D01*
X72700Y40513D02*X72000Y39813D01*
X72700Y40513D02*X73500D01*
X74000Y40013D01*
Y39013D01*
X73500Y38513D01*
X72700D02*X73500D01*
X72000Y39213D02*X72700Y38513D01*
X360000Y268198D02*Y266898D01*
X360700Y268898D02*X360000Y268198D01*
X360700Y268898D02*X363300D01*
X364000Y268198D01*
Y266898D01*
X360500Y265698D02*X363500D01*
X364000Y265198D01*
Y264198D01*
X363500Y263698D01*
X360500D02*X363500D01*
X360000Y264198D02*X360500Y263698D01*
X360000Y265198D02*Y264198D01*
X360500Y265698D02*X360000Y265198D01*
Y262498D02*X364000D01*
X360000Y259998D01*
X364000D01*
X360000Y258798D02*X364000D01*
X360000Y256298D01*
X364000D01*
X363500Y255098D02*X364000Y254598D01*
Y253598D01*
X363500Y253098D01*
X360000Y253598D02*X360500Y253098D01*
X360000Y254598D02*Y253598D01*
X360500Y255098D02*X360000Y254598D01*
X362200D02*Y253598D01*
X362700Y253098D02*X363500D01*
X360500D02*X361700D01*
X362200Y253598D01*
X362700Y253098D02*X362200Y253598D01*
X358500Y176213D02*Y174213D01*
Y176213D02*X359000Y176713D01*
X360000D01*
X360500Y176213D02*X360000Y176713D01*
X360500Y176213D02*Y174713D01*
X358500D02*X362500D01*
X360500Y175513D02*X362500Y176713D01*
X359300Y177913D02*X358500Y178713D01*
X362500D01*
Y179413D02*Y177913D01*
X359000Y180613D02*X358500Y181113D01*
Y182113D02*Y181113D01*
Y182113D02*X359000Y182613D01*
X362500Y182113D02*X362000Y182613D01*
X362500Y182113D02*Y181113D01*
X362000Y180613D02*X362500Y181113D01*
X360300Y182113D02*Y181113D01*
X359000Y182613D02*X359800D01*
X360800D02*X362000D01*
X360800D02*X360300Y182113D01*
X359800Y182613D02*X360300Y182113D01*
X348500Y176213D02*Y174213D01*
Y176213D02*X349000Y176713D01*
X350000D01*
X350500Y176213D02*X350000Y176713D01*
X350500Y176213D02*Y174713D01*
X348500D02*X352500D01*
X350500Y175513D02*X352500Y176713D01*
X349300Y177913D02*X348500Y178713D01*
X352500D01*
Y179413D02*Y177913D01*
X349000Y180613D02*X348500Y181113D01*
Y182613D02*Y181113D01*
Y182613D02*X349000Y183113D01*
X350000D01*
X352500Y180613D02*X350000Y183113D01*
X352500D02*Y180613D01*
X374000Y190698D02*Y189898D01*
X370500D02*X374000D01*
X370000Y190398D02*X370500Y189898D01*
X370000Y190898D02*Y190398D01*
X370500Y191398D02*X370000Y190898D01*
X370500Y191398D02*X371000D01*
X374000Y187198D02*X373500Y186698D01*
X374000Y188198D02*Y187198D01*
X373500Y188698D02*X374000Y188198D01*
X370500Y188698D02*X373500D01*
X370500D02*X370000Y188198D01*
X372200Y187198D02*X371700Y186698D01*
X372200Y188698D02*Y187198D01*
X370000Y188198D02*Y187198D01*
X370500Y186698D01*
X371700D01*
X360500Y141213D02*Y137213D01*
X361800Y141213D02*X362500Y140513D01*
Y137913D01*
X361800Y137213D02*X362500Y137913D01*
X360000Y137213D02*X361800D01*
X360000Y141213D02*X361800D01*
X365200D02*X365700Y140713D01*
X364200Y141213D02*X365200D01*
X363700Y140713D02*X364200Y141213D01*
X363700Y140713D02*Y137713D01*
X364200Y137213D01*
X365200Y139413D02*X365700Y138913D01*
X363700Y139413D02*X365200D01*
X364200Y137213D02*X365200D01*
X365700Y137713D01*
Y138913D02*Y137713D01*
X360500Y121213D02*Y117213D01*
X361800Y121213D02*X362500Y120513D01*
Y117913D01*
X361800Y117213D02*X362500Y117913D01*
X360000Y117213D02*X361800D01*
X360000Y121213D02*X361800D01*
X363700D02*X365700D01*
X363700D02*Y119213D01*
X364200Y119713D01*
X365200D01*
X365700Y119213D01*
Y117713D01*
X365200Y117213D02*X365700Y117713D01*
X364200Y117213D02*X365200D01*
X363700Y117713D02*X364200Y117213D01*
X284500Y244213D02*Y240213D01*
X283200D02*X282500Y240913D01*
Y243513D02*Y240913D01*
X283200Y244213D02*X282500Y243513D01*
X283200Y244213D02*X285000D01*
X283200Y240213D02*X285000D01*
X281300Y240713D02*X280800Y240213D01*
X279800D02*X280800D01*
X279800D02*X279300Y240713D01*
X279800Y244213D02*X279300Y243713D01*
X279800Y244213D02*X280800D01*
X281300Y243713D02*X280800Y244213D01*
X279800Y242013D02*X280800D01*
X279300Y241513D02*Y240713D01*
Y243713D02*Y242513D01*
X279800Y242013D01*
X279300Y241513D02*X279800Y242013D01*
X278200Y91713D02*X279500D01*
X277500Y92413D02*X278200Y91713D01*
X277500Y95013D02*Y92413D01*
Y95013D02*X278200Y95713D01*
X279500D01*
X280700Y94913D02*X281500Y95713D01*
Y91713D01*
X280700D02*X282200D01*
X283400Y92213D02*X283900Y91713D01*
X283400Y95213D02*Y92213D01*
Y95213D02*X283900Y95713D01*
X284900D01*
X285400Y95213D01*
Y92213D01*
X284900Y91713D02*X285400Y92213D01*
X283900Y91713D02*X284900D01*
X283400Y92713D02*X285400Y94713D01*
X284500Y271713D02*Y267713D01*
X283200D02*X282500Y268413D01*
Y271013D02*Y268413D01*
X283200Y271713D02*X282500Y271013D01*
X283200Y271713D02*X285000D01*
X283200Y267713D02*X285000D01*
X281300Y270213D02*X279300Y267713D01*
X278800Y270213D02*X281300D01*
X279300Y271713D02*Y267713D01*
X353500Y285213D02*X354300D01*
X353500Y288713D02*Y285213D01*
X354000Y289213D02*X353500Y288713D01*
X354000Y289213D02*X354500D01*
X355000Y288713D02*X354500Y289213D01*
X355000Y288713D02*Y288213D01*
X352300Y287713D02*X350300Y285213D01*
X349800Y287713D02*X352300D01*
X350300Y289213D02*Y285213D01*
X310500Y264213D02*X314000D01*
X310500D02*X310000Y263713D01*
Y262713D01*
X310500Y262213D01*
X314000D01*
X310500Y261013D02*X310000Y260513D01*
X310500Y261013D02*X311300D01*
X312000Y260313D01*
Y259713D01*
X311300Y259013D01*
X310500D02*X311300D01*
X310000Y259513D02*X310500Y259013D01*
X310000Y260513D02*Y259513D01*
X312700Y261013D02*X312000Y260313D01*
X312700Y261013D02*X313500D01*
X314000Y260513D01*
Y259513D01*
X313500Y259013D01*
X312700D02*X313500D01*
X312000Y259713D02*X312700Y259013D01*
X315000Y28713D02*Y27413D01*
X314300Y26713D02*X315000Y27413D01*
X311700Y26713D02*X314300D01*
X311700D02*X311000Y27413D01*
Y28713D02*Y27413D01*
Y31913D02*Y29913D01*
X313000D01*
X312500Y30413D01*
Y31413D02*Y30413D01*
Y31413D02*X313000Y31913D01*
X314500D01*
X315000Y31413D02*X314500Y31913D01*
X315000Y31413D02*Y30413D01*
X314500Y29913D02*X315000Y30413D01*
X300000Y58713D02*Y57413D01*
X299300Y56713D02*X300000Y57413D01*
X296700Y56713D02*X299300D01*
X296700D02*X296000Y57413D01*
Y58713D02*Y57413D01*
X300000Y60413D02*X298000Y61913D01*
X296500D02*X298000D01*
X296000Y61413D02*X296500Y61913D01*
X296000Y61413D02*Y60413D01*
X296500Y59913D02*X296000Y60413D01*
X296500Y59913D02*X297500D01*
X298000Y60413D01*
Y61913D02*Y60413D01*
X310500Y244213D02*X314000D01*
X310500D02*X310000Y243713D01*
Y242713D01*
X310500Y242213D01*
X314000D01*
X310000Y240513D02*X314000Y238513D01*
Y241013D02*Y238513D01*
X313500Y160213D02*X314300D01*
X313500Y163713D02*Y160213D01*
X314000Y164213D02*X313500Y163713D01*
X314000Y164213D02*X314500D01*
X315000Y163713D02*X314500Y164213D01*
X315000Y163713D02*Y163213D01*
X312300Y163713D02*X311800Y164213D01*
X312300Y163713D02*Y162913D01*
X311600Y162213D01*
X311000D02*X311600D01*
X311000D02*X310300Y162913D01*
Y163713D02*Y162913D01*
X310800Y164213D02*X310300Y163713D01*
X310800Y164213D02*X311800D01*
X312300Y161513D02*X311600Y162213D01*
X312300Y161513D02*Y160713D01*
X311800Y160213D01*
X310800D02*X311800D01*
X310800D02*X310300Y160713D01*
Y161513D02*Y160713D01*
X311000Y162213D02*X310300Y161513D01*
X336000Y169213D02*X339500D01*
X340000Y169713D01*
Y170713D02*Y169713D01*
Y170713D02*X339500Y171213D01*
X336000D02*X339500D01*
X336800Y172413D02*X336000Y173213D01*
X340000D01*
Y173913D02*Y172413D01*
X339500Y175113D02*X340000Y175613D01*
X336500Y175113D02*X339500D01*
X336500D02*X336000Y175613D01*
Y176613D02*Y175613D01*
Y176613D02*X336500Y177113D01*
X339500D01*
X340000Y176613D02*X339500Y177113D01*
X340000Y176613D02*Y175613D01*
X339000Y175113D02*X337000Y177113D01*
X336000Y189213D02*X339500D01*
X340000Y189713D01*
Y190713D02*Y189713D01*
Y190713D02*X339500Y191213D01*
X336000D02*X339500D01*
X340000Y192913D02*X338000Y194413D01*
X336500D02*X338000D01*
X336000Y193913D02*X336500Y194413D01*
X336000Y193913D02*Y192913D01*
X336500Y192413D02*X336000Y192913D01*
X336500Y192413D02*X337500D01*
X338000Y192913D01*
Y194413D02*Y192913D01*
X118500Y171213D02*Y169213D01*
Y171213D02*X119000Y171713D01*
X120000D01*
X120500Y171213D02*X120000Y171713D01*
X120500Y171213D02*Y169713D01*
X118500D02*X122500D01*
X120500Y170513D02*X122500Y171713D01*
X118500Y174413D02*X119000Y174913D01*
X118500Y174413D02*Y173413D01*
X119000Y172913D02*X118500Y173413D01*
X119000Y172913D02*X122000D01*
X122500Y173413D01*
X120300Y174413D02*X120800Y174913D01*
X120300Y174413D02*Y172913D01*
X122500Y174413D02*Y173413D01*
Y174413D02*X122000Y174913D01*
X120800D02*X122000D01*
X133500Y171213D02*Y169213D01*
Y171213D02*X134000Y171713D01*
X135000D01*
X135500Y171213D02*X135000Y171713D01*
X135500Y171213D02*Y169713D01*
X133500D02*X137500D01*
X135500Y170513D02*X137500Y171713D01*
X133500Y174913D02*Y172913D01*
X135500D01*
X135000Y173413D01*
Y174413D02*Y173413D01*
Y174413D02*X135500Y174913D01*
X137000D01*
X137500Y174413D02*X137000Y174913D01*
X137500Y174413D02*Y173413D01*
X137000Y172913D02*X137500Y173413D01*
X143200Y141713D02*X144500D01*
X142500Y142413D02*X143200Y141713D01*
X142500Y145013D02*Y142413D01*
Y145013D02*X143200Y145713D01*
X144500D01*
X147200D02*X147700Y145213D01*
X146200Y145713D02*X147200D01*
X145700Y145213D02*X146200Y145713D01*
X145700Y145213D02*Y142213D01*
X146200Y141713D01*
X147200Y143913D02*X147700Y143413D01*
X145700Y143913D02*X147200D01*
X146200Y141713D02*X147200D01*
X147700Y142213D01*
Y143413D02*Y142213D01*
X145700Y184213D02*X147000D01*
X145000Y184913D02*X145700Y184213D01*
X145000Y187513D02*Y184913D01*
Y187513D02*X145700Y188213D01*
X147000D01*
X148200Y185713D02*X150200Y188213D01*
X148200Y185713D02*X150700D01*
X150200Y188213D02*Y184213D01*
X143200Y66713D02*X144500D01*
X142500Y67413D02*X143200Y66713D01*
X142500Y70013D02*Y67413D01*
Y70013D02*X143200Y70713D01*
X144500D01*
X145700Y69913D02*X146500Y70713D01*
Y66713D01*
X145700D02*X147200D01*
X148400Y70213D02*X148900Y70713D01*
X150400D01*
X150900Y70213D01*
Y69213D01*
X148400Y66713D02*X150900Y69213D01*
X148400Y66713D02*X150900D01*
X181000Y89213D02*X184500D01*
X185000Y89713D01*
Y90713D02*Y89713D01*
Y90713D02*X184500Y91213D01*
X181000D02*X184500D01*
X181000Y94413D02*Y92413D01*
X183000D01*
X182500Y92913D01*
Y93913D02*Y92913D01*
Y93913D02*X183000Y94413D01*
X184500D01*
X185000Y93913D02*X184500Y94413D01*
X185000Y93913D02*Y92913D01*
X184500Y92413D02*X185000Y92913D01*
X235000Y161213D02*Y159913D01*
X234300Y159213D02*X235000Y159913D01*
X231700Y159213D02*X234300D01*
X231700D02*X231000Y159913D01*
Y161213D02*Y159913D01*
X231800Y162413D02*X231000Y163213D01*
X235000D01*
Y163913D02*Y162413D01*
X231800Y165113D02*X231000Y165913D01*
X235000D01*
Y166613D02*Y165113D01*
X186500Y179213D02*X190000D01*
X186500D02*X186000Y178713D01*
Y177713D01*
X186500Y177213D01*
X190000D01*
X187500Y176013D02*X190000Y174013D01*
X187500Y176013D02*Y173513D01*
X186000Y174013D02*X190000D01*
X133500Y113213D02*X136500D01*
X137000Y112713D01*
Y111713D01*
X136500Y111213D01*
X134000D02*X136500D01*
X133000Y112213D02*X134000Y111213D01*
X133000Y112713D02*Y112213D01*
X133500Y113213D02*X133000Y112713D01*
X134500Y112213D02*X133000Y111213D01*
X136200Y110013D02*X137000Y109213D01*
X133000D02*X137000D01*
X133000Y110013D02*Y108513D01*
X263500Y11713D02*X267000D01*
X267500Y12213D01*
Y13213D02*Y12213D01*
Y13213D02*X267000Y13713D01*
X263500D02*X267000D01*
X263500Y16413D02*X264000Y16913D01*
X263500Y16413D02*Y15413D01*
X264000Y14913D02*X263500Y15413D01*
X264000Y14913D02*X267000D01*
X267500Y15413D01*
X265300Y16413D02*X265800Y16913D01*
X265300Y16413D02*Y14913D01*
X267500Y16413D02*Y15413D01*
Y16413D02*X267000Y16913D01*
X265800D02*X267000D01*
X207500Y21213D02*Y19913D01*
X206800Y19213D02*X207500Y19913D01*
X204200Y19213D02*X206800D01*
X204200D02*X203500Y19913D01*
Y21213D02*Y19913D01*
X207000Y22413D02*X207500Y22913D01*
X206200Y22413D02*X207000D01*
X206200D02*X205500Y23113D01*
Y23713D02*Y23113D01*
Y23713D02*X206200Y24413D01*
X207000D01*
X207500Y23913D02*X207000Y24413D01*
X207500Y23913D02*Y22913D01*
X204800Y22413D02*X205500Y23113D01*
X204000Y22413D02*X204800D01*
X204000D02*X203500Y22913D01*
Y23913D02*Y22913D01*
Y23913D02*X204000Y24413D01*
X204800D01*
X205500Y23713D02*X204800Y24413D01*
X190000Y49213D02*Y47263D01*
X188950Y46213D02*X190000Y47263D01*
X185050Y46213D02*X188950D01*
X185050D02*X184000Y47263D01*
Y49213D02*Y47263D01*
X184750Y51013D02*X189250D01*
X184750D02*X184000Y51763D01*
Y53263D02*Y51763D01*
Y53263D02*X184750Y54013D01*
X189250D01*
X190000Y53263D02*X189250Y54013D01*
X190000Y53263D02*Y51763D01*
X189250Y51013D02*X190000Y51763D01*
X184000Y55813D02*X190000D01*
X184000D02*X190000Y59563D01*
X184000D02*X190000D01*
X184000Y61363D02*X190000D01*
X184000D02*X190000Y65113D01*
X184000D02*X190000D01*
X187750Y66913D02*X184000Y69913D01*
X187750Y70663D02*Y66913D01*
X184000Y69913D02*X190000D01*
X267500Y41013D02*Y39713D01*
X268200Y41713D02*X267500Y41013D01*
X268200Y41713D02*X270800D01*
X271500Y41013D01*
Y39713D01*
X267500Y38013D02*X271500Y36013D01*
Y38513D02*Y36013D01*
X131500Y128513D02*Y127713D01*
X128000D02*X131500D01*
X127500Y128213D02*X128000Y127713D01*
X127500Y128713D02*Y128213D01*
X128000Y129213D02*X127500Y128713D01*
X128000Y129213D02*X128500D01*
X131000Y126513D02*X131500Y126013D01*
Y125013D01*
X131000Y124513D01*
X127500Y125013D02*X128000Y124513D01*
X127500Y126013D02*Y125013D01*
X128000Y126513D02*X127500Y126013D01*
X129700D02*Y125013D01*
X130200Y124513D02*X131000D01*
X128000D02*X129200D01*
X129700Y125013D01*
X130200Y124513D02*X129700Y125013D01*
X118500Y130713D02*Y129913D01*
Y130713D02*X122000D01*
X122500Y130213D02*X122000Y130713D01*
X122500Y130213D02*Y129713D01*
X122000Y129213D02*X122500Y129713D01*
X121500Y129213D02*X122000D01*
X119000Y131913D02*X118500Y132413D01*
Y133913D02*Y132413D01*
Y133913D02*X119000Y134413D01*
X120000D01*
X122500Y131913D02*X120000Y134413D01*
X122500D02*Y131913D01*
X131000Y276013D02*Y274713D01*
X131700Y276713D02*X131000Y276013D01*
X131700Y276713D02*X134300D01*
X135000Y276013D01*
Y274713D01*
X131500Y273513D02*X134500D01*
X135000Y273013D01*
Y272013D01*
X134500Y271513D01*
X131500D02*X134500D01*
X131000Y272013D02*X131500Y271513D01*
X131000Y273013D02*Y272013D01*
X131500Y273513D02*X131000Y273013D01*
Y270313D02*X135000D01*
X131000Y267813D01*
X135000D01*
X131000Y266613D02*X135000D01*
X131000Y264113D01*
X135000D01*
Y262913D02*Y260913D01*
X133000Y262913D02*X135000D01*
X133000D02*X133500Y262413D01*
Y261413D01*
X133000Y260913D01*
X131500D02*X133000D01*
X131000Y261413D02*X131500Y260913D01*
X131000Y262413D02*Y261413D01*
X131500Y262913D02*X131000Y262413D01*
X153500Y264713D02*X157500D01*
X153500Y266013D02*X154200Y266713D01*
X156800D01*
X157500Y266013D02*X156800Y266713D01*
X157500Y266013D02*Y264213D01*
X153500Y266013D02*Y264213D01*
X154300Y267913D02*X153500Y268713D01*
X157500D01*
Y269413D02*Y267913D01*
X245500Y289213D02*X246800D01*
X247500Y288513D02*X246800Y289213D01*
X247500Y288513D02*Y285913D01*
X246800Y285213D01*
X245500D02*X246800D01*
X244300Y288713D02*Y285713D01*
X243800Y285213D01*
X242800D02*X243800D01*
X242800D02*X242300Y285713D01*
Y288713D02*Y285713D01*
X242800Y289213D02*X242300Y288713D01*
X242800Y289213D02*X243800D01*
X244300Y288713D02*X243800Y289213D01*
X241100D02*Y285213D01*
X238600Y289213D01*
Y285213D01*
X237400Y289213D02*Y285213D01*
X234900Y289213D01*
Y285213D01*
X233700Y285713D02*X233200Y285213D01*
X231700D02*X233200D01*
X231700D02*X231200Y285713D01*
Y286713D02*Y285713D01*
X233700Y289213D02*X231200Y286713D01*
Y289213D02*X233700D01*
X197500Y260713D02*X199500D01*
X200000Y260213D01*
Y259213D01*
X199500Y258713D02*X200000Y259213D01*
X198000Y258713D02*X199500D01*
X198000Y260713D02*Y256713D01*
X198800Y258713D02*X200000Y256713D01*
X201200Y258213D02*X203200Y260713D01*
X201200Y258213D02*X203700D01*
X203200Y260713D02*Y256713D01*
X255000Y200713D02*X257000D01*
X257500Y200213D01*
Y199213D01*
X257000Y198713D02*X257500Y199213D01*
X255500Y198713D02*X257000D01*
X255500Y200713D02*Y196713D01*
X256300Y198713D02*X257500Y196713D01*
X258700Y199913D02*X259500Y200713D01*
Y196713D01*
X258700D02*X260200D01*
X261400Y200713D02*X263400D01*
X261400D02*Y198713D01*
X261900Y199213D01*
X262900D01*
X263400Y198713D01*
Y197213D01*
X262900Y196713D02*X263400Y197213D01*
X261900Y196713D02*X262900D01*
X261400Y197213D02*X261900Y196713D01*
X250000Y213213D02*X252000D01*
X252500Y212713D01*
Y211713D01*
X252000Y211213D02*X252500Y211713D01*
X250500Y211213D02*X252000D01*
X250500Y213213D02*Y209213D01*
X251300Y211213D02*X252500Y209213D01*
X253700Y212413D02*X254500Y213213D01*
Y209213D01*
X253700D02*X255200D01*
X256400Y210713D02*X258400Y213213D01*
X256400Y210713D02*X258900D01*
X258400Y213213D02*Y209213D01*
X255000Y240713D02*X257000D01*
X257500Y240213D01*
Y239213D01*
X257000Y238713D02*X257500Y239213D01*
X255500Y238713D02*X257000D01*
X255500Y240713D02*Y236713D01*
X256300Y238713D02*X257500Y236713D01*
X258700Y239913D02*X259500Y240713D01*
Y236713D01*
X258700D02*X260200D01*
X261400Y239913D02*X262200Y240713D01*
Y236713D01*
X261400D02*X262900D01*
X255000Y225713D02*X257000D01*
X257500Y225213D01*
Y224213D01*
X257000Y223713D02*X257500Y224213D01*
X255500Y223713D02*X257000D01*
X255500Y225713D02*Y221713D01*
X256300Y223713D02*X257500Y221713D01*
X258700Y224913D02*X259500Y225713D01*
Y221713D01*
X258700D02*X260200D01*
X261400Y222213D02*X261900Y221713D01*
X261400Y225213D02*Y222213D01*
Y225213D02*X261900Y225713D01*
X262900D01*
X263400Y225213D01*
Y222213D01*
X262900Y221713D02*X263400Y222213D01*
X261900Y221713D02*X262900D01*
X261400Y222713D02*X263400Y224713D01*
X145500Y223213D02*Y219213D01*
X146800Y223213D02*X147500Y222513D01*
Y219913D01*
X146800Y219213D02*X147500Y219913D01*
X145000Y219213D02*X146800D01*
X145000Y223213D02*X146800D01*
X148700Y222713D02*X149200Y223213D01*
X150700D01*
X151200Y222713D01*
Y221713D01*
X148700Y219213D02*X151200Y221713D01*
X148700Y219213D02*X151200D01*
X185500Y259213D02*X189000D01*
X185500D02*X185000Y258713D01*
Y257713D01*
X185500Y257213D01*
X189000D01*
X188500Y256013D02*X189000Y255513D01*
Y254513D01*
X188500Y254013D01*
X185000Y254513D02*X185500Y254013D01*
X185000Y255513D02*Y254513D01*
X185500Y256013D02*X185000Y255513D01*
X187200D02*Y254513D01*
X187700Y254013D02*X188500D01*
X185500D02*X186700D01*
X187200Y254513D01*
X187700Y254013D02*X187200Y254513D01*
X159000Y214213D02*Y212213D01*
X158500Y211713D01*
X157500D02*X158500D01*
X157000Y212213D02*X157500Y211713D01*
X157000Y213713D02*Y212213D01*
X155000Y213713D02*X159000D01*
X157000Y212913D02*X155000Y211713D01*
X158500Y210513D02*X159000Y210013D01*
Y209013D01*
X158500Y208513D01*
X155000Y209013D02*X155500Y208513D01*
X155000Y210013D02*Y209013D01*
X155500Y210513D02*X155000Y210013D01*
X157200D02*Y209013D01*
X157700Y208513D02*X158500D01*
X155500D02*X156700D01*
X157200Y209013D01*
X157700Y208513D02*X157200Y209013D01*
X174000Y241713D02*Y239713D01*
X173500Y239213D01*
X172500D02*X173500D01*
X172000Y239713D02*X172500Y239213D01*
X172000Y241213D02*Y239713D01*
X170000Y241213D02*X174000D01*
X172000Y240413D02*X170000Y239213D01*
X173500Y238013D02*X174000Y237513D01*
Y236013D01*
X173500Y235513D01*
X172500D02*X173500D01*
X170000Y238013D02*X172500Y235513D01*
X170000Y238013D02*Y235513D01*
X167500Y238513D02*Y237213D01*
X168200Y239213D02*X167500Y238513D01*
X168200Y239213D02*X170800D01*
X171500Y238513D01*
Y237213D01*
X170700Y236013D02*X171500Y235213D01*
X167500D02*X171500D01*
X167500Y236013D02*Y234513D01*
X171000Y233313D02*X171500Y232813D01*
Y231813D01*
X171000Y231313D01*
X167500Y231813D02*X168000Y231313D01*
X167500Y232813D02*Y231813D01*
X168000Y233313D02*X167500Y232813D01*
X169700D02*Y231813D01*
X170200Y231313D02*X171000D01*
X168000D02*X169200D01*
X169700Y231813D01*
X170200Y231313D02*X169700Y231813D01*
M02*
