M48
INCH
T56C0.020
T55C0.042
T54C0.060
T53C0.035
T52C0.030
T51C0.043
T50C0.028
T49C0.038
T48C0.048
%
T56
X008500Y022921
X008500Y021171
X011000Y024921
X011000Y022921
X012000Y023921
X012000Y021421
X012500Y008421
X012500Y006421
X014000Y021421
X014000Y018921
X018500Y012671
X018500Y009921
X026250Y017421
X026250Y015671
X028250Y020421
X028250Y016171
T50
X006500Y016921
X006500Y013921
X007500Y016921
X007500Y013921
X008500Y016921
X008500Y013921
X009500Y016921
X009500Y013921
X014500Y012421
X014500Y011421
X014500Y010421
X014500Y009421
X017500Y012421
X017500Y011421
X017500Y010421
X017500Y009421
X018000Y017421
X018000Y015421
X019500Y025421
X019500Y024421
X019500Y023421
X019500Y022421
X019500Y021421
X019500Y020421
X019500Y019421
X019500Y018421
X019500Y017421
X019500Y016421
X019500Y015421
X019500Y014421
X019500Y013421
X019500Y012421
X022500Y025421
X022500Y024421
X022500Y023421
X022500Y022421
X022500Y021421
X022500Y020421
X022500Y019421
X022500Y018421
X022500Y017421
X022500Y016421
X022500Y015421
X022500Y014421
X022500Y013421
X022500Y012421
X023500Y009421
X023500Y008421
X023500Y007421
X023500Y006421
X023500Y005421
X023500Y004421
X023500Y003421
X023500Y002421
X026500Y009421
X026500Y008421
X026500Y007421
X026500Y006421
X026500Y005421
X026500Y004421
X026500Y003421
X026500Y002421
X030000Y020421
X030000Y019421
X030000Y018421
X030000Y017421
X032000Y025921
X032000Y024921
X032000Y023921
X032000Y022921
X033000Y020421
X033000Y019421
X033000Y018421
X033000Y017421
X035000Y025921
X035000Y024921
X035000Y023921
X035000Y022921
T52
X003500Y019171
X003500Y015171
X004500Y017421
X004500Y014421
X006000Y024921
X006000Y023921
X007500Y018421
X007500Y010671
X007500Y009421
X007500Y008421
X008500Y018421
X009000Y024921
X009000Y023921
X009500Y012421
X010000Y020421
X010500Y012421
X010500Y010671
X010500Y009421
X010500Y008421
X011500Y018921
X011500Y015921
X013000Y020421
X013000Y018921
X013000Y015921
X015500Y017421
X015500Y015421
X015500Y007921
X016250Y025421
X016250Y024421
X016250Y023421
X016250Y019421
X016500Y017421
X016500Y015421
X016500Y007921
X017750Y025171
X017750Y021171
X018250Y026421
X021250Y026421
X022000Y003421
X022000Y002421
X024000Y017421
X024000Y016421
X024500Y024421
X024500Y022921
X024500Y021671
X024500Y020421
X027500Y024421
X027500Y022921
X027500Y021671
X027500Y020421
X028250Y007671
X028250Y006171
X028250Y005171
X028250Y003421
X028250Y001921
X029250Y007671
X030250Y004421
X030250Y003421
X034500Y019421
X034500Y016421
X035500Y019421
X035500Y016421
T53
X007500Y006421
X007500Y004421
X009500Y005421
T49
X005500Y019921
X005500Y018921
X012000Y014921
X012000Y013921
X012500Y027171
X012500Y026171
X013000Y014921
X013000Y013921
X020250Y027921
X020250Y006421
X020250Y005421
X020250Y004421
X021250Y027921
X022250Y027921
X023250Y027921
X024250Y027921
X030000Y015421
X031000Y015421
X034000Y027921
X035000Y027921
T55
X012500Y011421
X012500Y010421
X012500Y009421
T51
X014000Y023421
X014250Y026421
X014250Y025421
X015000Y023421
X028500Y026171
X028500Y023421
X029500Y026171
X029500Y023421
X034500Y014921
X034500Y012921
X035500Y014921
X035500Y012921
T48
X001500Y027390
X001500Y025421
X001500Y019390
X001500Y017421
X001500Y015453
X038000Y026890
X038000Y024921
X038000Y022953
X038000Y017390
X038000Y015421
X038000Y013453
T54
X006500Y026890
X007500Y026890
X008500Y026890
M30
