G04 start of page 6 for group -4063 idx -4063 *
G04 Title: (unknown), componentmask *
G04 Creator: pcb 20140316 *
G04 CreationDate: Ne 28. leden 2018, 18:47:39 GMT UTC *
G04 For: mario *
G04 Format: Gerber/RS-274X *
G04 PCB-Dimensions (mil): 3976.38 2992.13 *
G04 PCB-Coordinate-Origin: lower left *
%MOIN*%
%FSLAX25Y25*%
%LNTOPMASK*%
%ADD64C,0.0780*%
%ADD63C,0.0960*%
%ADD62C,0.0610*%
%ADD61C,0.0710*%
%ADD60C,0.0660*%
%ADD59C,0.0001*%
%ADD58C,0.1054*%
%ADD57C,0.0100*%
G54D57*X395000Y4213D02*X375000D01*
X395000D02*Y24213D01*
Y4213D02*X0D01*
Y299213D01*
X395000D01*
Y4213D01*
G54D58*X380000Y268898D03*
Y249213D03*
G54D59*G36*
X346700Y282513D02*Y275913D01*
X353300D01*
Y282513D01*
X346700D01*
G37*
G54D60*X350000Y249213D03*
Y259213D03*
Y229213D03*
Y239213D03*
X340000Y279213D03*
G54D59*G36*
X316700Y262513D02*Y255913D01*
X323300D01*
Y262513D01*
X316700D01*
G37*
G54D60*X320000Y249213D03*
G54D59*G36*
X316700Y242513D02*Y235913D01*
X323300D01*
Y242513D01*
X316700D01*
G37*
G54D60*X320000Y229213D03*
G54D58*X380000Y229528D03*
Y173898D03*
Y154213D03*
Y134528D03*
G54D59*G36*
X341450Y152763D02*Y145663D01*
X348550D01*
Y152763D01*
X341450D01*
G37*
G54D61*X355000Y149213D03*
G54D58*X15000Y154528D03*
Y174213D03*
Y193898D03*
G54D59*G36*
X71950Y109763D02*Y103663D01*
X78050D01*
Y109763D01*
X71950D01*
G37*
G54D60*X75000Y64213D03*
Y44213D03*
G54D59*G36*
X71950Y97263D02*Y91163D01*
X78050D01*
Y97263D01*
X71950D01*
G37*
G54D62*X75000Y84213D03*
G54D58*X15000Y254213D03*
Y273898D03*
G54D59*G36*
X56700Y252513D02*Y245913D01*
X63300D01*
Y252513D01*
X56700D01*
G37*
G54D60*X60000Y239213D03*
G54D59*G36*
X86700Y252513D02*Y245913D01*
X93300D01*
Y252513D01*
X86700D01*
G37*
G54D60*X90000Y239213D03*
G54D59*G36*
X60200Y273698D02*Y264098D01*
X69800D01*
Y273698D01*
X60200D01*
G37*
G54D63*X75000Y268898D03*
X85000D03*
G54D60*Y139213D03*
G54D62*X45000Y144213D03*
G54D59*G36*
X31950Y154763D02*Y148663D01*
X38050D01*
Y154763D01*
X31950D01*
G37*
G54D60*X85000Y169213D03*
G54D59*G36*
X81700Y187513D02*Y180913D01*
X88300D01*
Y187513D01*
X81700D01*
G37*
G54D60*X75000Y184213D03*
G54D59*G36*
X61700Y142513D02*Y135913D01*
X68300D01*
Y142513D01*
X61700D01*
G37*
G54D60*X75000Y139213D03*
Y169213D03*
X65000D03*
G54D59*G36*
X41950Y177263D02*Y171163D01*
X48050D01*
Y177263D01*
X41950D01*
G37*
G36*
X51700Y202513D02*Y195913D01*
X58300D01*
Y202513D01*
X51700D01*
G37*
G54D60*X55000Y189213D03*
G54D62*X35000Y191713D03*
G54D60*X95000Y139213D03*
X130000D03*
X120000D03*
X95000Y169213D03*
G54D59*G36*
X111950Y162263D02*Y156163D01*
X118050D01*
Y162263D01*
X111950D01*
G37*
G36*
X126950D02*Y156163D01*
X133050D01*
Y162263D01*
X126950D01*
G37*
G36*
X126700Y152513D02*Y145913D01*
X133300D01*
Y152513D01*
X126700D01*
G37*
G36*
X116700D02*Y145913D01*
X123300D01*
Y152513D01*
X116700D01*
G37*
G36*
X96950Y207263D02*Y201163D01*
X103050D01*
Y207263D01*
X96950D01*
G37*
G54D62*X130000Y204213D03*
X115000Y189213D03*
X130000D03*
G54D59*G36*
X91700Y127513D02*Y120913D01*
X98300D01*
Y127513D01*
X91700D01*
G37*
G54D60*X95000Y54213D03*
X105000Y124213D03*
G54D62*Y106713D03*
G54D59*G36*
X121100Y98113D02*Y90313D01*
X128900D01*
Y98113D01*
X121100D01*
G37*
G54D64*X125000Y104213D03*
Y114213D03*
G54D62*X105000Y94213D03*
G54D59*G36*
X101950Y87263D02*Y81163D01*
X108050D01*
Y87263D01*
X101950D01*
G37*
G36*
X151700Y82513D02*Y75913D01*
X158300D01*
Y82513D01*
X151700D01*
G37*
G54D60*X145000Y114213D03*
Y104213D03*
Y94213D03*
X165000Y79213D03*
Y154213D03*
G54D59*G36*
X171700Y97513D02*Y90913D01*
X178300D01*
Y97513D01*
X171700D01*
G37*
G54D60*X175000Y104213D03*
Y114213D03*
Y124213D03*
X145000D03*
G54D59*G36*
X151700Y157513D02*Y150913D01*
X158300D01*
Y157513D01*
X151700D01*
G37*
G36*
Y177513D02*Y170913D01*
X158300D01*
Y177513D01*
X151700D01*
G37*
G54D60*X165000Y174213D03*
G54D62*X162500Y194213D03*
G54D59*G36*
X176700Y177513D02*Y170913D01*
X183300D01*
Y177513D01*
X176700D01*
G37*
G54D60*X180000Y154213D03*
G54D59*G36*
X261700Y27513D02*Y20913D01*
X268300D01*
Y27513D01*
X261700D01*
G37*
G54D60*X265000Y34213D03*
Y44213D03*
X220000Y34213D03*
G54D59*G36*
X299200Y37513D02*Y30913D01*
X305800D01*
Y37513D01*
X299200D01*
G37*
G54D60*X302500Y44213D03*
G54D59*G36*
X279200Y37513D02*Y30913D01*
X285800D01*
Y37513D01*
X279200D01*
G37*
G54D60*X265000Y54213D03*
G54D59*G36*
X279200Y55013D02*Y48413D01*
X285800D01*
Y55013D01*
X279200D01*
G37*
G54D60*X282500Y61713D03*
Y19213D03*
X265000Y64213D03*
X235000D03*
X265000Y74213D03*
X235000D03*
X265000Y84213D03*
X235000D03*
X265000Y94213D03*
X235000D03*
G54D59*G36*
X279200Y80013D02*Y73413D01*
X285800D01*
Y80013D01*
X279200D01*
G37*
G54D60*X292500Y76713D03*
X235000Y54213D03*
Y44213D03*
Y34213D03*
Y24213D03*
G54D59*G36*
X199200Y47513D02*Y40913D01*
X205800D01*
Y47513D01*
X199200D01*
G37*
G54D60*X202500Y54213D03*
Y64213D03*
G54D59*G36*
X216700Y27513D02*Y20913D01*
X223300D01*
Y27513D01*
X216700D01*
G37*
G36*
X241950Y207263D02*Y201163D01*
X248050D01*
Y207263D01*
X241950D01*
G37*
G54D62*X275000Y204213D03*
Y216713D03*
Y229213D03*
G54D59*G36*
X241950Y219763D02*Y213663D01*
X248050D01*
Y219763D01*
X241950D01*
G37*
G36*
Y232263D02*Y226163D01*
X248050D01*
Y232263D01*
X241950D01*
G37*
G54D62*X275000Y244213D03*
G54D59*G36*
X291450Y237763D02*Y230663D01*
X298550D01*
Y237763D01*
X291450D01*
G37*
G54D61*X285000Y234213D03*
G54D59*G36*
X291450Y265263D02*Y258163D01*
X298550D01*
Y265263D01*
X291450D01*
G37*
G54D61*X285000Y261713D03*
G54D59*G36*
X306700Y157513D02*Y150913D01*
X313300D01*
Y157513D01*
X306700D01*
G37*
G54D60*X300000Y154213D03*
Y184213D03*
Y174213D03*
Y204213D03*
Y194213D03*
G54D59*G36*
X326700Y177513D02*Y170913D01*
X333300D01*
Y177513D01*
X326700D01*
G37*
G54D60*X330000Y184213D03*
G54D59*G36*
X326700Y197513D02*Y190913D01*
X333300D01*
Y197513D01*
X326700D01*
G37*
G54D60*X330000Y204213D03*
G54D59*G36*
X351950Y167263D02*Y161163D01*
X358050D01*
Y167263D01*
X351950D01*
G37*
G54D62*X355000Y194213D03*
G54D59*G36*
X341950Y167263D02*Y161163D01*
X348050D01*
Y167263D01*
X341950D01*
G37*
G54D62*X345000Y194213D03*
G54D59*G36*
X341450Y132763D02*Y125663D01*
X348550D01*
Y132763D01*
X341450D01*
G37*
G54D61*X355000Y129213D03*
G54D59*G36*
X121700Y275013D02*Y268413D01*
X128300D01*
Y275013D01*
X121700D01*
G37*
G54D60*X125000Y261713D03*
G54D59*G36*
X138950Y257763D02*Y250663D01*
X146050D01*
Y257763D01*
X138950D01*
G37*
G54D61*X142500Y264213D03*
G54D60*X195000Y234213D03*
Y224213D03*
Y214213D03*
Y204213D03*
Y194213D03*
Y184213D03*
X225000Y194213D03*
Y204213D03*
Y214213D03*
Y224213D03*
G54D62*X177500Y211713D03*
G54D60*X195000Y174213D03*
Y164213D03*
Y154213D03*
Y144213D03*
Y134213D03*
Y124213D03*
X225000D03*
Y134213D03*
Y144213D03*
Y154213D03*
Y164213D03*
Y174213D03*
Y184213D03*
G54D59*G36*
X236700Y167513D02*Y160913D01*
X243300D01*
Y167513D01*
X236700D01*
G37*
G54D60*X240000Y174213D03*
X225000Y234213D03*
Y244213D03*
Y254213D03*
X212500Y279213D03*
X202500D03*
G54D62*X212500Y264213D03*
G54D59*G36*
X239200Y282513D02*Y275913D01*
X245800D01*
Y282513D01*
X239200D01*
G37*
G54D60*X232500Y279213D03*
X222500D03*
G54D59*G36*
X241950Y247263D02*Y241163D01*
X248050D01*
Y247263D01*
X241950D01*
G37*
G36*
X136450Y237763D02*Y230663D01*
X143550D01*
Y237763D01*
X136450D01*
G37*
G54D61*X150000Y234213D03*
G54D59*G36*
X179450Y267263D02*Y261163D01*
X185550D01*
Y267263D01*
X179450D01*
G37*
G36*
X159450Y237263D02*Y231163D01*
X165550D01*
Y237263D01*
X159450D01*
G37*
G36*
X191700Y257513D02*Y250913D01*
X198300D01*
Y257513D01*
X191700D01*
G37*
G54D60*X195000Y244213D03*
G54D59*G36*
X174450Y254763D02*Y248663D01*
X180550D01*
Y254763D01*
X174450D01*
G37*
G36*
X159200Y257513D02*Y250913D01*
X165800D01*
Y257513D01*
X159200D01*
G37*
G54D60*X162500Y244213D03*
M02*
