G04 start of page 10 for group -3984 idx -3984 *
G04 Title: (unknown), fab *
G04 Creator: pcb 20140316 *
G04 CreationDate: Ne 28. leden 2018, 18:47:39 GMT UTC *
G04 For: mario *
G04 Format: Gerber/RS-274X *
G04 PCB-Dimensions (mil): 3976.38 2992.13 *
G04 PCB-Coordinate-Origin: lower left *
%MOIN*%
%FSLAX25Y25*%
%LNFAB*%
%ADD80C,0.0001*%
%ADD79C,0.0075*%
%ADD78C,0.0060*%
%ADD77C,0.0080*%
%ADD76C,0.0100*%
G54D76*X395000Y4213D02*X375000D01*
X395000D02*Y24213D01*
Y4213D02*X0D01*
Y299213D01*
X395000D01*
Y4213D01*
G54D77*X64200Y268898D02*G75*G03X65800Y268898I800J0D01*G01*
G75*G03X64200Y268898I-800J0D01*G01*
X62600D02*G75*G03X67400Y268898I2400J0D01*G01*
G75*G03X62600Y268898I-2400J0D01*G01*
X74200D02*G75*G03X75800Y268898I800J0D01*G01*
G75*G03X74200Y268898I-800J0D01*G01*
X72600D02*G75*G03X77400Y268898I2400J0D01*G01*
G75*G03X72600Y268898I-2400J0D01*G01*
X84200D02*G75*G03X85800Y268898I800J0D01*G01*
G75*G03X84200Y268898I-800J0D01*G01*
X82600D02*G75*G03X87400Y268898I2400J0D01*G01*
G75*G03X82600Y268898I-2400J0D01*G01*
X14200Y310463D02*G75*G03X15800Y310463I800J0D01*G01*
G75*G03X14200Y310463I-800J0D01*G01*
X12600D02*G75*G03X17400Y310463I2400J0D01*G01*
G75*G03X12600Y310463I-2400J0D01*G01*
G54D78*X135000Y312713D02*X136500Y309713D01*
X138000Y312713D01*
X136500Y309713D02*Y306713D01*
X139800Y310013D02*X142050D01*
X139800Y306713D02*X142800D01*
X139800Y312713D02*Y306713D01*
Y312713D02*X142800D01*
X147600D02*X148350Y311963D01*
X145350Y312713D02*X147600D01*
X144600Y311963D02*X145350Y312713D01*
X144600Y311963D02*Y310463D01*
X145350Y309713D01*
X147600D01*
X148350Y308963D01*
Y307463D01*
X147600Y306713D02*X148350Y307463D01*
X145350Y306713D02*X147600D01*
X144600Y307463D02*X145350Y306713D01*
X98000Y311963D02*X98750Y312713D01*
X100250D01*
X101000Y311963D01*
X100250Y306713D02*X101000Y307463D01*
X98750Y306713D02*X100250D01*
X98000Y307463D02*X98750Y306713D01*
Y310013D02*X100250D01*
X101000Y311963D02*Y310763D01*
Y309263D02*Y307463D01*
Y309263D02*X100250Y310013D01*
X101000Y310763D02*X100250Y310013D01*
X45000Y307463D02*X45750Y306713D01*
X45000Y311963D02*Y307463D01*
Y311963D02*X45750Y312713D01*
X47250D01*
X48000Y311963D01*
Y307463D01*
X47250Y306713D02*X48000Y307463D01*
X45750Y306713D02*X47250D01*
X45000Y308213D02*X48000Y311213D01*
X49800Y306713D02*X50550D01*
X52350Y307463D02*X53100Y306713D01*
X52350Y311963D02*Y307463D01*
Y311963D02*X53100Y312713D01*
X54600D01*
X55350Y311963D01*
Y307463D01*
X54600Y306713D02*X55350Y307463D01*
X53100Y306713D02*X54600D01*
X52350Y308213D02*X55350Y311213D01*
X59400Y312713D02*X60150Y311963D01*
X57900Y312713D02*X59400D01*
X57150Y311963D02*X57900Y312713D01*
X57150Y311963D02*Y307463D01*
X57900Y306713D01*
X59400Y310013D02*X60150Y309263D01*
X57150Y310013D02*X59400D01*
X57900Y306713D02*X59400D01*
X60150Y307463D01*
Y309263D02*Y307463D01*
X61950D02*X62700Y306713D01*
X61950Y311963D02*Y307463D01*
Y311963D02*X62700Y312713D01*
X64200D01*
X64950Y311963D01*
Y307463D01*
X64200Y306713D02*X64950Y307463D01*
X62700Y306713D02*X64200D01*
X61950Y308213D02*X64950Y311213D01*
X12600Y156928D02*X17400Y152128D01*
X12600D02*X17400Y156928D01*
X13400Y156128D02*X16600D01*
X13400D02*Y152928D01*
X16600D01*
Y156128D02*Y152928D01*
X12600Y176613D02*X17400Y171813D01*
X12600D02*X17400Y176613D01*
X13400Y175813D02*X16600D01*
X13400D02*Y172613D01*
X16600D01*
Y175813D02*Y172613D01*
X12600Y196298D02*X17400Y191498D01*
X12600D02*X17400Y196298D01*
X13400Y195498D02*X16600D01*
X13400D02*Y192298D01*
X16600D01*
Y195498D02*Y192298D01*
X12600Y256613D02*X17400Y251813D01*
X12600D02*X17400Y256613D01*
X13400Y255813D02*X16600D01*
X13400D02*Y252613D01*
X16600D01*
Y255813D02*Y252613D01*
X12600Y276298D02*X17400Y271498D01*
X12600D02*X17400Y276298D01*
X13400Y275498D02*X16600D01*
X13400D02*Y272298D01*
X16600D01*
Y275498D02*Y272298D01*
X377600Y271298D02*X382400Y266498D01*
X377600D02*X382400Y271298D01*
X378400Y270498D02*X381600D01*
X378400D02*Y267298D01*
X381600D01*
Y270498D02*Y267298D01*
X377600Y251613D02*X382400Y246813D01*
X377600D02*X382400Y251613D01*
X378400Y250813D02*X381600D01*
X378400D02*Y247613D01*
X381600D01*
Y250813D02*Y247613D01*
X377600Y231928D02*X382400Y227128D01*
X377600D02*X382400Y231928D01*
X378400Y231128D02*X381600D01*
X378400D02*Y227928D01*
X381600D01*
Y231128D02*Y227928D01*
X377600Y176298D02*X382400Y171498D01*
X377600D02*X382400Y176298D01*
X378400Y175498D02*X381600D01*
X378400D02*Y172298D01*
X381600D01*
Y175498D02*Y172298D01*
X377600Y156613D02*X382400Y151813D01*
X377600D02*X382400Y156613D01*
X378400Y155813D02*X381600D01*
X378400D02*Y152613D01*
X381600D01*
Y155813D02*Y152613D01*
X377600Y136928D02*X382400Y132128D01*
X377600D02*X382400Y136928D01*
X378400Y136128D02*X381600D01*
X378400D02*Y132928D01*
X381600D01*
Y136128D02*Y132928D01*
X12600Y327863D02*X17400Y323063D01*
X12600D02*X17400Y327863D01*
X13400Y327063D02*X16600D01*
X13400D02*Y323863D01*
X16600D01*
Y327063D02*Y323863D01*
X135000Y327713D02*X136500Y324713D01*
X138000Y327713D01*
X136500Y324713D02*Y321713D01*
X139800Y325013D02*X142050D01*
X139800Y321713D02*X142800D01*
X139800Y327713D02*Y321713D01*
Y327713D02*X142800D01*
X147600D02*X148350Y326963D01*
X145350Y327713D02*X147600D01*
X144600Y326963D02*X145350Y327713D01*
X144600Y326963D02*Y325463D01*
X145350Y324713D01*
X147600D01*
X148350Y323963D01*
Y322463D01*
X147600Y321713D02*X148350Y322463D01*
X145350Y321713D02*X147600D01*
X144600Y322463D02*X145350Y321713D01*
X98000Y326513D02*X99200Y327713D01*
Y321713D01*
X98000D02*X100250D01*
X102050Y326513D02*X103250Y327713D01*
Y321713D01*
X102050D02*X104300D01*
X45000Y322463D02*X45750Y321713D01*
X45000Y326963D02*Y322463D01*
Y326963D02*X45750Y327713D01*
X47250D01*
X48000Y326963D01*
Y322463D01*
X47250Y321713D02*X48000Y322463D01*
X45750Y321713D02*X47250D01*
X45000Y323213D02*X48000Y326213D01*
X49800Y321713D02*X50550D01*
X52350Y322463D02*X53100Y321713D01*
X52350Y326963D02*Y322463D01*
Y326963D02*X53100Y327713D01*
X54600D01*
X55350Y326963D01*
Y322463D01*
X54600Y321713D02*X55350Y322463D01*
X53100Y321713D02*X54600D01*
X52350Y323213D02*X55350Y326213D01*
X57150Y323963D02*X60150Y327713D01*
X57150Y323963D02*X60900D01*
X60150Y327713D02*Y321713D01*
X62700Y322463D02*X63450Y321713D01*
X62700Y323663D02*Y322463D01*
Y323663D02*X63750Y324713D01*
X64650D01*
X65700Y323663D01*
Y322463D01*
X64950Y321713D02*X65700Y322463D01*
X63450Y321713D02*X64950D01*
X62700Y325763D02*X63750Y324713D01*
X62700Y326963D02*Y325763D01*
Y326963D02*X63450Y327713D01*
X64950D01*
X65700Y326963D01*
Y325763D01*
X64650Y324713D02*X65700Y325763D01*
X140000Y237413D02*Y231013D01*
X136800Y234213D02*X143200D01*
X138400Y235813D02*X141600D01*
X138400D02*Y232613D01*
X141600D01*
Y235813D02*Y232613D01*
X150000Y237413D02*Y231013D01*
X146800Y234213D02*X153200D01*
X148400Y235813D02*X151600D01*
X148400D02*Y232613D01*
X151600D01*
Y235813D02*Y232613D01*
X142500Y257413D02*Y251013D01*
X139300Y254213D02*X145700D01*
X140900Y255813D02*X144100D01*
X140900D02*Y252613D01*
X144100D01*
Y255813D02*Y252613D01*
X142500Y267413D02*Y261013D01*
X139300Y264213D02*X145700D01*
X140900Y265813D02*X144100D01*
X140900D02*Y262613D01*
X144100D01*
Y265813D02*Y262613D01*
X295000Y237413D02*Y231013D01*
X291800Y234213D02*X298200D01*
X293400Y235813D02*X296600D01*
X293400D02*Y232613D01*
X296600D01*
Y235813D02*Y232613D01*
X285000Y237413D02*Y231013D01*
X281800Y234213D02*X288200D01*
X283400Y235813D02*X286600D01*
X283400D02*Y232613D01*
X286600D01*
Y235813D02*Y232613D01*
X295000Y264913D02*Y258513D01*
X291800Y261713D02*X298200D01*
X293400Y263313D02*X296600D01*
X293400D02*Y260113D01*
X296600D01*
Y263313D02*Y260113D01*
X285000Y264913D02*Y258513D01*
X281800Y261713D02*X288200D01*
X283400Y263313D02*X286600D01*
X283400D02*Y260113D01*
X286600D01*
Y263313D02*Y260113D01*
X345000Y152413D02*Y146013D01*
X341800Y149213D02*X348200D01*
X343400Y150813D02*X346600D01*
X343400D02*Y147613D01*
X346600D01*
Y150813D02*Y147613D01*
X355000Y152413D02*Y146013D01*
X351800Y149213D02*X358200D01*
X353400Y150813D02*X356600D01*
X353400D02*Y147613D01*
X356600D01*
Y150813D02*Y147613D01*
X345000Y132413D02*Y126013D01*
X341800Y129213D02*X348200D01*
X343400Y130813D02*X346600D01*
X343400D02*Y127613D01*
X346600D01*
Y130813D02*Y127613D01*
X355000Y132413D02*Y126013D01*
X351800Y129213D02*X358200D01*
X353400Y130813D02*X356600D01*
X353400D02*Y127613D01*
X356600D01*
Y130813D02*Y127613D01*
X15000Y343663D02*Y337263D01*
X11800Y340463D02*X18200D01*
X13400Y342063D02*X16600D01*
X13400D02*Y338863D01*
X16600D01*
Y342063D02*Y338863D01*
X135000Y342713D02*X136500Y339713D01*
X138000Y342713D01*
X136500Y339713D02*Y336713D01*
X139800Y340013D02*X142050D01*
X139800Y336713D02*X142800D01*
X139800Y342713D02*Y336713D01*
Y342713D02*X142800D01*
X147600D02*X148350Y341963D01*
X145350Y342713D02*X147600D01*
X144600Y341963D02*X145350Y342713D01*
X144600Y341963D02*Y340463D01*
X145350Y339713D01*
X147600D01*
X148350Y338963D01*
Y337463D01*
X147600Y336713D02*X148350Y337463D01*
X145350Y336713D02*X147600D01*
X144600Y337463D02*X145350Y336713D01*
X98000Y341513D02*X99200Y342713D01*
Y336713D01*
X98000D02*X100250D01*
X102050Y341963D02*X102800Y342713D01*
X105050D01*
X105800Y341963D01*
Y340463D01*
X102050Y336713D02*X105800Y340463D01*
X102050Y336713D02*X105800D01*
X45000Y337463D02*X45750Y336713D01*
X45000Y341963D02*Y337463D01*
Y341963D02*X45750Y342713D01*
X47250D01*
X48000Y341963D01*
Y337463D01*
X47250Y336713D02*X48000Y337463D01*
X45750Y336713D02*X47250D01*
X45000Y338213D02*X48000Y341213D01*
X49800Y336713D02*X50550D01*
X52350Y337463D02*X53100Y336713D01*
X52350Y341963D02*Y337463D01*
Y341963D02*X53100Y342713D01*
X54600D01*
X55350Y341963D01*
Y337463D01*
X54600Y336713D02*X55350Y337463D01*
X53100Y336713D02*X54600D01*
X52350Y338213D02*X55350Y341213D01*
X57150Y338963D02*X60150Y342713D01*
X57150Y338963D02*X60900D01*
X60150Y342713D02*Y336713D01*
X62700Y341963D02*X63450Y342713D01*
X64950D01*
X65700Y341963D01*
X64950Y336713D02*X65700Y337463D01*
X63450Y336713D02*X64950D01*
X62700Y337463D02*X63450Y336713D01*
Y340013D02*X64950D01*
X65700Y341963D02*Y340763D01*
Y339263D02*Y337463D01*
Y339263D02*X64950Y340013D01*
X65700Y340763D02*X64950Y340013D01*
X125000Y94213D02*Y91013D01*
Y94213D02*X127773Y95813D01*
X125000Y94213D02*X122227Y95813D01*
X123400Y94213D02*G75*G03X126600Y94213I1600J0D01*G01*
G75*G03X123400Y94213I-1600J0D01*G01*
X125000Y104213D02*Y101013D01*
Y104213D02*X127773Y105813D01*
X125000Y104213D02*X122227Y105813D01*
X123400Y104213D02*G75*G03X126600Y104213I1600J0D01*G01*
G75*G03X123400Y104213I-1600J0D01*G01*
X125000Y114213D02*Y111013D01*
Y114213D02*X127773Y115813D01*
X125000Y114213D02*X122227Y115813D01*
X123400Y114213D02*G75*G03X126600Y114213I1600J0D01*G01*
G75*G03X123400Y114213I-1600J0D01*G01*
X15000Y355463D02*Y352263D01*
Y355463D02*X17773Y357063D01*
X15000Y355463D02*X12227Y357063D01*
X13400Y355463D02*G75*G03X16600Y355463I1600J0D01*G01*
G75*G03X13400Y355463I-1600J0D01*G01*
X135000Y357713D02*X136500Y354713D01*
X138000Y357713D01*
X136500Y354713D02*Y351713D01*
X139800Y355013D02*X142050D01*
X139800Y351713D02*X142800D01*
X139800Y357713D02*Y351713D01*
Y357713D02*X142800D01*
X147600D02*X148350Y356963D01*
X145350Y357713D02*X147600D01*
X144600Y356963D02*X145350Y357713D01*
X144600Y356963D02*Y355463D01*
X145350Y354713D01*
X147600D01*
X148350Y353963D01*
Y352463D01*
X147600Y351713D02*X148350Y352463D01*
X145350Y351713D02*X147600D01*
X144600Y352463D02*X145350Y351713D01*
X98000Y356963D02*X98750Y357713D01*
X100250D01*
X101000Y356963D01*
X100250Y351713D02*X101000Y352463D01*
X98750Y351713D02*X100250D01*
X98000Y352463D02*X98750Y351713D01*
Y355013D02*X100250D01*
X101000Y356963D02*Y355763D01*
Y354263D02*Y352463D01*
Y354263D02*X100250Y355013D01*
X101000Y355763D02*X100250Y355013D01*
X45000Y352463D02*X45750Y351713D01*
X45000Y356963D02*Y352463D01*
Y356963D02*X45750Y357713D01*
X47250D01*
X48000Y356963D01*
Y352463D01*
X47250Y351713D02*X48000Y352463D01*
X45750Y351713D02*X47250D01*
X45000Y353213D02*X48000Y356213D01*
X49800Y351713D02*X50550D01*
X52350Y352463D02*X53100Y351713D01*
X52350Y356963D02*Y352463D01*
Y356963D02*X53100Y357713D01*
X54600D01*
X55350Y356963D01*
Y352463D01*
X54600Y351713D02*X55350Y352463D01*
X53100Y351713D02*X54600D01*
X52350Y353213D02*X55350Y356213D01*
X57150Y353963D02*X60150Y357713D01*
X57150Y353963D02*X60900D01*
X60150Y357713D02*Y351713D01*
X62700Y356963D02*X63450Y357713D01*
X65700D01*
X66450Y356963D01*
Y355463D01*
X62700Y351713D02*X66450Y355463D01*
X62700Y351713D02*X66450D01*
X53400Y200813D02*X56600D01*
X53400D02*Y197613D01*
X56600D01*
Y200813D02*Y197613D01*
X53400Y190813D02*X56600D01*
X53400D02*Y187613D01*
X56600D01*
Y190813D02*Y187613D01*
X123400Y273313D02*X126600D01*
X123400D02*Y270113D01*
X126600D01*
Y273313D02*Y270113D01*
X123400Y263313D02*X126600D01*
X123400D02*Y260113D01*
X126600D01*
Y263313D02*Y260113D01*
X240900Y280813D02*X244100D01*
X240900D02*Y277613D01*
X244100D01*
Y280813D02*Y277613D01*
X230900Y280813D02*X234100D01*
X230900D02*Y277613D01*
X234100D01*
Y280813D02*Y277613D01*
X220900Y280813D02*X224100D01*
X220900D02*Y277613D01*
X224100D01*
Y280813D02*Y277613D01*
X210900Y280813D02*X214100D01*
X210900D02*Y277613D01*
X214100D01*
Y280813D02*Y277613D01*
X200900Y280813D02*X204100D01*
X200900D02*Y277613D01*
X204100D01*
Y280813D02*Y277613D01*
X348400Y280813D02*X351600D01*
X348400D02*Y277613D01*
X351600D01*
Y280813D02*Y277613D01*
X338400Y280813D02*X341600D01*
X338400D02*Y277613D01*
X341600D01*
Y280813D02*Y277613D01*
X308400Y155813D02*X311600D01*
X308400D02*Y152613D01*
X311600D01*
Y155813D02*Y152613D01*
X298400Y155813D02*X301600D01*
X298400D02*Y152613D01*
X301600D01*
Y155813D02*Y152613D01*
X200900Y45813D02*X204100D01*
X200900D02*Y42613D01*
X204100D01*
Y45813D02*Y42613D01*
X200900Y55813D02*X204100D01*
X200900D02*Y52613D01*
X204100D01*
Y55813D02*Y52613D01*
X200900Y65813D02*X204100D01*
X200900D02*Y62613D01*
X204100D01*
Y65813D02*Y62613D01*
X128400Y150813D02*X131600D01*
X128400D02*Y147613D01*
X131600D01*
Y150813D02*Y147613D01*
X128400Y140813D02*X131600D01*
X128400D02*Y137613D01*
X131600D01*
Y140813D02*Y137613D01*
X118400Y150813D02*X121600D01*
X118400D02*Y147613D01*
X121600D01*
Y150813D02*Y147613D01*
X118400Y140813D02*X121600D01*
X118400D02*Y137613D01*
X121600D01*
Y140813D02*Y137613D01*
X13400Y372063D02*X16600D01*
X13400D02*Y368863D01*
X16600D01*
Y372063D02*Y368863D01*
X135000Y372713D02*X136500Y369713D01*
X138000Y372713D01*
X136500Y369713D02*Y366713D01*
X139800Y370013D02*X142050D01*
X139800Y366713D02*X142800D01*
X139800Y372713D02*Y366713D01*
Y372713D02*X142800D01*
X147600D02*X148350Y371963D01*
X145350Y372713D02*X147600D01*
X144600Y371963D02*X145350Y372713D01*
X144600Y371963D02*Y370463D01*
X145350Y369713D01*
X147600D01*
X148350Y368963D01*
Y367463D01*
X147600Y366713D02*X148350Y367463D01*
X145350Y366713D02*X147600D01*
X144600Y367463D02*X145350Y366713D01*
X98000Y371963D02*X98750Y372713D01*
X101000D01*
X101750Y371963D01*
Y370463D01*
X98000Y366713D02*X101750Y370463D01*
X98000Y366713D02*X101750D01*
X103550Y367463D02*X104300Y366713D01*
X103550Y371963D02*Y367463D01*
Y371963D02*X104300Y372713D01*
X105800D01*
X106550Y371963D01*
Y367463D01*
X105800Y366713D02*X106550Y367463D01*
X104300Y366713D02*X105800D01*
X103550Y368213D02*X106550Y371213D01*
X45000Y367463D02*X45750Y366713D01*
X45000Y371963D02*Y367463D01*
Y371963D02*X45750Y372713D01*
X47250D01*
X48000Y371963D01*
Y367463D01*
X47250Y366713D02*X48000Y367463D01*
X45750Y366713D02*X47250D01*
X45000Y368213D02*X48000Y371213D01*
X49800Y366713D02*X50550D01*
X52350Y367463D02*X53100Y366713D01*
X52350Y371963D02*Y367463D01*
Y371963D02*X53100Y372713D01*
X54600D01*
X55350Y371963D01*
Y367463D01*
X54600Y366713D02*X55350Y367463D01*
X53100Y366713D02*X54600D01*
X52350Y368213D02*X55350Y371213D01*
X57150Y371963D02*X57900Y372713D01*
X59400D01*
X60150Y371963D01*
X59400Y366713D02*X60150Y367463D01*
X57900Y366713D02*X59400D01*
X57150Y367463D02*X57900Y366713D01*
Y370013D02*X59400D01*
X60150Y371963D02*Y370763D01*
Y369263D02*Y367463D01*
Y369263D02*X59400Y370013D01*
X60150Y370763D02*X59400Y370013D01*
X61950Y367463D02*X62700Y366713D01*
X61950Y368663D02*Y367463D01*
Y368663D02*X63000Y369713D01*
X63900D01*
X64950Y368663D01*
Y367463D01*
X64200Y366713D02*X64950Y367463D01*
X62700Y366713D02*X64200D01*
X61950Y370763D02*X63000Y369713D01*
X61950Y371963D02*Y370763D01*
Y371963D02*X62700Y372713D01*
X64200D01*
X64950Y371963D01*
Y370763D01*
X63900Y369713D02*X64950Y370763D01*
X74200Y64213D02*G75*G03X75800Y64213I800J0D01*G01*
G75*G03X74200Y64213I-800J0D01*G01*
Y44213D02*G75*G03X75800Y44213I800J0D01*G01*
G75*G03X74200Y44213I-800J0D01*G01*
X94200Y54213D02*G75*G03X95800Y54213I800J0D01*G01*
G75*G03X94200Y54213I-800J0D01*G01*
X14200Y385463D02*G75*G03X15800Y385463I800J0D01*G01*
G75*G03X14200Y385463I-800J0D01*G01*
X135000Y387713D02*X136500Y384713D01*
X138000Y387713D01*
X136500Y384713D02*Y381713D01*
X139800Y385013D02*X142050D01*
X139800Y381713D02*X142800D01*
X139800Y387713D02*Y381713D01*
Y387713D02*X142800D01*
X147600D02*X148350Y386963D01*
X145350Y387713D02*X147600D01*
X144600Y386963D02*X145350Y387713D01*
X144600Y386963D02*Y385463D01*
X145350Y384713D01*
X147600D01*
X148350Y383963D01*
Y382463D01*
X147600Y381713D02*X148350Y382463D01*
X145350Y381713D02*X147600D01*
X144600Y382463D02*X145350Y381713D01*
X98000Y386963D02*X98750Y387713D01*
X100250D01*
X101000Y386963D01*
X100250Y381713D02*X101000Y382463D01*
X98750Y381713D02*X100250D01*
X98000Y382463D02*X98750Y381713D01*
Y385013D02*X100250D01*
X101000Y386963D02*Y385763D01*
Y384263D02*Y382463D01*
Y384263D02*X100250Y385013D01*
X101000Y385763D02*X100250Y385013D01*
X45000Y382463D02*X45750Y381713D01*
X45000Y386963D02*Y382463D01*
Y386963D02*X45750Y387713D01*
X47250D01*
X48000Y386963D01*
Y382463D01*
X47250Y381713D02*X48000Y382463D01*
X45750Y381713D02*X47250D01*
X45000Y383213D02*X48000Y386213D01*
X49800Y381713D02*X50550D01*
X52350Y382463D02*X53100Y381713D01*
X52350Y386963D02*Y382463D01*
Y386963D02*X53100Y387713D01*
X54600D01*
X55350Y386963D01*
Y382463D01*
X54600Y381713D02*X55350Y382463D01*
X53100Y381713D02*X54600D01*
X52350Y383213D02*X55350Y386213D01*
X57150Y386963D02*X57900Y387713D01*
X59400D01*
X60150Y386963D01*
X59400Y381713D02*X60150Y382463D01*
X57900Y381713D02*X59400D01*
X57150Y382463D02*X57900Y381713D01*
Y385013D02*X59400D01*
X60150Y386963D02*Y385763D01*
Y384263D02*Y382463D01*
Y384263D02*X59400Y385013D01*
X60150Y385763D02*X59400Y385013D01*
X61950Y387713D02*X64950D01*
X61950D02*Y384713D01*
X62700Y385463D01*
X64200D01*
X64950Y384713D01*
Y382463D01*
X64200Y381713D02*X64950Y382463D01*
X62700Y381713D02*X64200D01*
X61950Y382463D02*X62700Y381713D01*
X83800Y185413D02*X86200Y183013D01*
X83800D02*X86200Y185413D01*
X73800D02*X76200Y183013D01*
X73800D02*X76200Y185413D01*
X98800Y205413D02*X101200Y203013D01*
X98800D02*X101200Y205413D01*
X128800D02*X131200Y203013D01*
X128800D02*X131200Y205413D01*
X43800Y175413D02*X46200Y173013D01*
X43800D02*X46200Y175413D01*
X43800Y145413D02*X46200Y143013D01*
X43800D02*X46200Y145413D01*
X58800Y250413D02*X61200Y248013D01*
X58800D02*X61200Y250413D01*
X58800Y240413D02*X61200Y238013D01*
X58800D02*X61200Y240413D01*
X88800Y250413D02*X91200Y248013D01*
X88800D02*X91200Y250413D01*
X88800Y240413D02*X91200Y238013D01*
X88800D02*X91200Y240413D01*
X113800Y160413D02*X116200Y158013D01*
X113800D02*X116200Y160413D01*
X113800Y190413D02*X116200Y188013D01*
X113800D02*X116200Y190413D01*
X128800Y160413D02*X131200Y158013D01*
X128800D02*X131200Y160413D01*
X128800Y190413D02*X131200Y188013D01*
X128800D02*X131200Y190413D01*
X153800Y80413D02*X156200Y78013D01*
X153800D02*X156200Y80413D01*
X163800D02*X166200Y78013D01*
X163800D02*X166200Y80413D01*
X153800Y155413D02*X156200Y153013D01*
X153800D02*X156200Y155413D01*
X163800D02*X166200Y153013D01*
X163800D02*X166200Y155413D01*
X153800Y175413D02*X156200Y173013D01*
X153800D02*X156200Y175413D01*
X163800D02*X166200Y173013D01*
X163800D02*X166200Y175413D01*
X238800Y165413D02*X241200Y163013D01*
X238800D02*X241200Y165413D01*
X238800Y175413D02*X241200Y173013D01*
X238800D02*X241200Y175413D01*
X181300Y265413D02*X183700Y263013D01*
X181300D02*X183700Y265413D01*
X211300D02*X213700Y263013D01*
X211300D02*X213700Y265413D01*
X243800Y205413D02*X246200Y203013D01*
X243800D02*X246200Y205413D01*
X273800D02*X276200Y203013D01*
X273800D02*X276200Y205413D01*
X243800Y217913D02*X246200Y215513D01*
X243800D02*X246200Y217913D01*
X273800D02*X276200Y215513D01*
X273800D02*X276200Y217913D01*
X243800Y245413D02*X246200Y243013D01*
X243800D02*X246200Y245413D01*
X273800D02*X276200Y243013D01*
X273800D02*X276200Y245413D01*
X243800Y230413D02*X246200Y228013D01*
X243800D02*X246200Y230413D01*
X273800D02*X276200Y228013D01*
X273800D02*X276200Y230413D01*
X353800Y165413D02*X356200Y163013D01*
X353800D02*X356200Y165413D01*
X353800Y195413D02*X356200Y193013D01*
X353800D02*X356200Y195413D01*
X343800Y165413D02*X346200Y163013D01*
X343800D02*X346200Y165413D01*
X343800Y195413D02*X346200Y193013D01*
X343800D02*X346200Y195413D01*
X218800Y25413D02*X221200Y23013D01*
X218800D02*X221200Y25413D01*
X218800Y35413D02*X221200Y33013D01*
X218800D02*X221200Y35413D01*
X301300D02*X303700Y33013D01*
X301300D02*X303700Y35413D01*
X301300Y45413D02*X303700Y43013D01*
X301300D02*X303700Y45413D01*
X281300Y52913D02*X283700Y50513D01*
X281300D02*X283700Y52913D01*
X281300Y62913D02*X283700Y60513D01*
X281300D02*X283700Y62913D01*
X281300Y77913D02*X283700Y75513D01*
X281300D02*X283700Y77913D01*
X291300D02*X293700Y75513D01*
X291300D02*X293700Y77913D01*
X161300Y235413D02*X163700Y233013D01*
X161300D02*X163700Y235413D01*
X161300Y195413D02*X163700Y193013D01*
X161300D02*X163700Y195413D01*
X176300Y252913D02*X178700Y250513D01*
X176300D02*X178700Y252913D01*
X176300Y212913D02*X178700Y210513D01*
X176300D02*X178700Y212913D01*
X93800Y125413D02*X96200Y123013D01*
X93800D02*X96200Y125413D01*
X103800D02*X106200Y123013D01*
X103800D02*X106200Y125413D01*
X73800Y107913D02*X76200Y105513D01*
X73800D02*X76200Y107913D01*
X103800D02*X106200Y105513D01*
X103800D02*X106200Y107913D01*
X161300Y255413D02*X163700Y253013D01*
X161300D02*X163700Y255413D01*
X161300Y245413D02*X163700Y243013D01*
X161300D02*X163700Y245413D01*
X281300Y35413D02*X283700Y33013D01*
X281300D02*X283700Y35413D01*
X281300Y20413D02*X283700Y18013D01*
X281300D02*X283700Y20413D01*
X33800Y152913D02*X36200Y150513D01*
X33800D02*X36200Y152913D01*
X33800Y192913D02*X36200Y190513D01*
X33800D02*X36200Y192913D01*
X73800Y95413D02*X76200Y93013D01*
X73800D02*X76200Y95413D01*
X103800D02*X106200Y93013D01*
X103800D02*X106200Y95413D01*
X103800Y85413D02*X106200Y83013D01*
X103800D02*X106200Y85413D01*
X73800D02*X76200Y83013D01*
X73800D02*X76200Y85413D01*
X13800Y401663D02*X16200Y399263D01*
X13800D02*X16200Y401663D01*
X135000Y402713D02*X136500Y399713D01*
X138000Y402713D01*
X136500Y399713D02*Y396713D01*
X139800Y400013D02*X142050D01*
X139800Y396713D02*X142800D01*
X139800Y402713D02*Y396713D01*
Y402713D02*X142800D01*
X147600D02*X148350Y401963D01*
X145350Y402713D02*X147600D01*
X144600Y401963D02*X145350Y402713D01*
X144600Y401963D02*Y400463D01*
X145350Y399713D01*
X147600D01*
X148350Y398963D01*
Y397463D01*
X147600Y396713D02*X148350Y397463D01*
X145350Y396713D02*X147600D01*
X144600Y397463D02*X145350Y396713D01*
X100250Y402713D02*X101000Y401963D01*
X98750Y402713D02*X100250D01*
X98000Y401963D02*X98750Y402713D01*
X98000Y401963D02*Y397463D01*
X98750Y396713D01*
X100250Y400013D02*X101000Y399263D01*
X98000Y400013D02*X100250D01*
X98750Y396713D02*X100250D01*
X101000Y397463D01*
Y399263D02*Y397463D01*
X102800Y401963D02*X103550Y402713D01*
X105800D01*
X106550Y401963D01*
Y400463D01*
X102800Y396713D02*X106550Y400463D01*
X102800Y396713D02*X106550D01*
X45000Y397463D02*X45750Y396713D01*
X45000Y401963D02*Y397463D01*
Y401963D02*X45750Y402713D01*
X47250D01*
X48000Y401963D01*
Y397463D01*
X47250Y396713D02*X48000Y397463D01*
X45750Y396713D02*X47250D01*
X45000Y398213D02*X48000Y401213D01*
X49800Y396713D02*X50550D01*
X52350Y397463D02*X53100Y396713D01*
X52350Y401963D02*Y397463D01*
Y401963D02*X53100Y402713D01*
X54600D01*
X55350Y401963D01*
Y397463D01*
X54600Y396713D02*X55350Y397463D01*
X53100Y396713D02*X54600D01*
X52350Y398213D02*X55350Y401213D01*
X57150Y401963D02*X57900Y402713D01*
X59400D01*
X60150Y401963D01*
X59400Y396713D02*X60150Y397463D01*
X57900Y396713D02*X59400D01*
X57150Y397463D02*X57900Y396713D01*
Y400013D02*X59400D01*
X60150Y401963D02*Y400763D01*
Y399263D02*Y397463D01*
Y399263D02*X59400Y400013D01*
X60150Y400763D02*X59400Y400013D01*
X61950Y397463D02*X62700Y396713D01*
X61950Y401963D02*Y397463D01*
Y401963D02*X62700Y402713D01*
X64200D01*
X64950Y401963D01*
Y397463D01*
X64200Y396713D02*X64950Y397463D01*
X62700Y396713D02*X64200D01*
X61950Y398213D02*X64950Y401213D01*
X65000Y140813D02*Y137613D01*
X63400Y139213D02*X66600D01*
X75000Y140813D02*Y137613D01*
X73400Y139213D02*X76600D01*
X85000Y140813D02*Y137613D01*
X83400Y139213D02*X86600D01*
X95000Y140813D02*Y137613D01*
X93400Y139213D02*X96600D01*
X95000Y170813D02*Y167613D01*
X93400Y169213D02*X96600D01*
X85000Y170813D02*Y167613D01*
X83400Y169213D02*X86600D01*
X75000Y170813D02*Y167613D01*
X73400Y169213D02*X76600D01*
X65000Y170813D02*Y167613D01*
X63400Y169213D02*X66600D01*
X175000Y95813D02*Y92613D01*
X173400Y94213D02*X176600D01*
X175000Y105813D02*Y102613D01*
X173400Y104213D02*X176600D01*
X175000Y115813D02*Y112613D01*
X173400Y114213D02*X176600D01*
X175000Y125813D02*Y122613D01*
X173400Y124213D02*X176600D01*
X145000Y125813D02*Y122613D01*
X143400Y124213D02*X146600D01*
X145000Y115813D02*Y112613D01*
X143400Y114213D02*X146600D01*
X145000Y105813D02*Y102613D01*
X143400Y104213D02*X146600D01*
X145000Y95813D02*Y92613D01*
X143400Y94213D02*X146600D01*
X195000Y255813D02*Y252613D01*
X193400Y254213D02*X196600D01*
X195000Y245813D02*Y242613D01*
X193400Y244213D02*X196600D01*
X195000Y235813D02*Y232613D01*
X193400Y234213D02*X196600D01*
X195000Y225813D02*Y222613D01*
X193400Y224213D02*X196600D01*
X195000Y215813D02*Y212613D01*
X193400Y214213D02*X196600D01*
X195000Y205813D02*Y202613D01*
X193400Y204213D02*X196600D01*
X195000Y195813D02*Y192613D01*
X193400Y194213D02*X196600D01*
X195000Y185813D02*Y182613D01*
X193400Y184213D02*X196600D01*
X195000Y175813D02*Y172613D01*
X193400Y174213D02*X196600D01*
X195000Y165813D02*Y162613D01*
X193400Y164213D02*X196600D01*
X195000Y155813D02*Y152613D01*
X193400Y154213D02*X196600D01*
X195000Y145813D02*Y142613D01*
X193400Y144213D02*X196600D01*
X195000Y135813D02*Y132613D01*
X193400Y134213D02*X196600D01*
X195000Y125813D02*Y122613D01*
X193400Y124213D02*X196600D01*
X225000Y125813D02*Y122613D01*
X223400Y124213D02*X226600D01*
X225000Y135813D02*Y132613D01*
X223400Y134213D02*X226600D01*
X225000Y145813D02*Y142613D01*
X223400Y144213D02*X226600D01*
X225000Y155813D02*Y152613D01*
X223400Y154213D02*X226600D01*
X225000Y165813D02*Y162613D01*
X223400Y164213D02*X226600D01*
X225000Y175813D02*Y172613D01*
X223400Y174213D02*X226600D01*
X225000Y185813D02*Y182613D01*
X223400Y184213D02*X226600D01*
X225000Y195813D02*Y192613D01*
X223400Y194213D02*X226600D01*
X225000Y205813D02*Y202613D01*
X223400Y204213D02*X226600D01*
X225000Y215813D02*Y212613D01*
X223400Y214213D02*X226600D01*
X225000Y225813D02*Y222613D01*
X223400Y224213D02*X226600D01*
X225000Y235813D02*Y232613D01*
X223400Y234213D02*X226600D01*
X225000Y245813D02*Y242613D01*
X223400Y244213D02*X226600D01*
X225000Y255813D02*Y252613D01*
X223400Y254213D02*X226600D01*
X180000Y175813D02*Y172613D01*
X178400Y174213D02*X181600D01*
X180000Y155813D02*Y152613D01*
X178400Y154213D02*X181600D01*
X320000Y260813D02*Y257613D01*
X318400Y259213D02*X321600D01*
X320000Y250813D02*Y247613D01*
X318400Y249213D02*X321600D01*
X350000Y250813D02*Y247613D01*
X348400Y249213D02*X351600D01*
X350000Y260813D02*Y257613D01*
X348400Y259213D02*X351600D01*
X320000Y240813D02*Y237613D01*
X318400Y239213D02*X321600D01*
X320000Y230813D02*Y227613D01*
X318400Y229213D02*X321600D01*
X350000Y230813D02*Y227613D01*
X348400Y229213D02*X351600D01*
X350000Y240813D02*Y237613D01*
X348400Y239213D02*X351600D01*
X330000Y175813D02*Y172613D01*
X328400Y174213D02*X331600D01*
X330000Y185813D02*Y182613D01*
X328400Y184213D02*X331600D01*
X300000Y185813D02*Y182613D01*
X298400Y184213D02*X301600D01*
X300000Y175813D02*Y172613D01*
X298400Y174213D02*X301600D01*
X330000Y195813D02*Y192613D01*
X328400Y194213D02*X331600D01*
X330000Y205813D02*Y202613D01*
X328400Y204213D02*X331600D01*
X300000Y205813D02*Y202613D01*
X298400Y204213D02*X301600D01*
X300000Y195813D02*Y192613D01*
X298400Y194213D02*X301600D01*
X265000Y25813D02*Y22613D01*
X263400Y24213D02*X266600D01*
X265000Y35813D02*Y32613D01*
X263400Y34213D02*X266600D01*
X265000Y45813D02*Y42613D01*
X263400Y44213D02*X266600D01*
X265000Y55813D02*Y52613D01*
X263400Y54213D02*X266600D01*
X265000Y65813D02*Y62613D01*
X263400Y64213D02*X266600D01*
X265000Y75813D02*Y72613D01*
X263400Y74213D02*X266600D01*
X265000Y85813D02*Y82613D01*
X263400Y84213D02*X266600D01*
X265000Y95813D02*Y92613D01*
X263400Y94213D02*X266600D01*
X235000Y95813D02*Y92613D01*
X233400Y94213D02*X236600D01*
X235000Y85813D02*Y82613D01*
X233400Y84213D02*X236600D01*
X235000Y75813D02*Y72613D01*
X233400Y74213D02*X236600D01*
X235000Y65813D02*Y62613D01*
X233400Y64213D02*X236600D01*
X235000Y55813D02*Y52613D01*
X233400Y54213D02*X236600D01*
X235000Y45813D02*Y42613D01*
X233400Y44213D02*X236600D01*
X235000Y35813D02*Y32613D01*
X233400Y34213D02*X236600D01*
X235000Y25813D02*Y22613D01*
X233400Y24213D02*X236600D01*
X15000Y417063D02*Y413863D01*
X13400Y415463D02*X16600D01*
X135000Y417713D02*X136500Y414713D01*
X138000Y417713D01*
X136500Y414713D02*Y411713D01*
X139800Y415013D02*X142050D01*
X139800Y411713D02*X142800D01*
X139800Y417713D02*Y411713D01*
Y417713D02*X142800D01*
X147600D02*X148350Y416963D01*
X145350Y417713D02*X147600D01*
X144600Y416963D02*X145350Y417713D01*
X144600Y416963D02*Y415463D01*
X145350Y414713D01*
X147600D01*
X148350Y413963D01*
Y412463D01*
X147600Y411713D02*X148350Y412463D01*
X145350Y411713D02*X147600D01*
X144600Y412463D02*X145350Y411713D01*
X98750D02*X101750Y417713D01*
X98000D02*X101750D01*
X103550Y412463D02*X104300Y411713D01*
X103550Y413663D02*Y412463D01*
Y413663D02*X104600Y414713D01*
X105500D01*
X106550Y413663D01*
Y412463D01*
X105800Y411713D02*X106550Y412463D01*
X104300Y411713D02*X105800D01*
X103550Y415763D02*X104600Y414713D01*
X103550Y416963D02*Y415763D01*
Y416963D02*X104300Y417713D01*
X105800D01*
X106550Y416963D01*
Y415763D01*
X105500Y414713D02*X106550Y415763D01*
X45000Y412463D02*X45750Y411713D01*
X45000Y416963D02*Y412463D01*
Y416963D02*X45750Y417713D01*
X47250D01*
X48000Y416963D01*
Y412463D01*
X47250Y411713D02*X48000Y412463D01*
X45750Y411713D02*X47250D01*
X45000Y413213D02*X48000Y416213D01*
X49800Y411713D02*X50550D01*
X52350Y412463D02*X53100Y411713D01*
X52350Y416963D02*Y412463D01*
Y416963D02*X53100Y417713D01*
X54600D01*
X55350Y416963D01*
Y412463D01*
X54600Y411713D02*X55350Y412463D01*
X53100Y411713D02*X54600D01*
X52350Y413213D02*X55350Y416213D01*
X57150Y416963D02*X57900Y417713D01*
X60150D01*
X60900Y416963D01*
Y415463D01*
X57150Y411713D02*X60900Y415463D01*
X57150Y411713D02*X60900D01*
X62700Y412463D02*X63450Y411713D01*
X62700Y413663D02*Y412463D01*
Y413663D02*X63750Y414713D01*
X64650D01*
X65700Y413663D01*
Y412463D01*
X64950Y411713D02*X65700Y412463D01*
X63450Y411713D02*X64950D01*
X62700Y415763D02*X63750Y414713D01*
X62700Y416963D02*Y415763D01*
Y416963D02*X63450Y417713D01*
X64950D01*
X65700Y416963D01*
Y415763D01*
X64650Y414713D02*X65700Y415763D01*
X185000Y126713D02*Y125113D01*
Y126713D02*X186387Y127513D01*
X185000Y126713D02*X183613Y127513D01*
X185000Y99213D02*Y97613D01*
Y99213D02*X186387Y100013D01*
X185000Y99213D02*X183613Y100013D01*
X282500Y204213D02*Y202613D01*
Y204213D02*X283887Y205013D01*
X282500Y204213D02*X281113Y205013D01*
X282500Y161713D02*Y160113D01*
Y161713D02*X283887Y162513D01*
X282500Y161713D02*X281113Y162513D01*
X110000Y249213D02*Y247613D01*
Y249213D02*X111387Y250013D01*
X110000Y249213D02*X108613Y250013D01*
X110000Y229213D02*Y227613D01*
Y229213D02*X111387Y230013D01*
X110000Y229213D02*X108613Y230013D01*
X85000Y211713D02*Y210113D01*
Y211713D02*X86387Y212513D01*
X85000Y211713D02*X83613Y212513D01*
X85000Y229213D02*Y227613D01*
Y229213D02*X86387Y230013D01*
X85000Y229213D02*X83613Y230013D01*
X120000Y239213D02*Y237613D01*
Y239213D02*X121387Y240013D01*
X120000Y239213D02*X118613Y240013D01*
X120000Y214213D02*Y212613D01*
Y214213D02*X121387Y215013D01*
X120000Y214213D02*X118613Y215013D01*
X262500Y174213D02*Y172613D01*
Y174213D02*X263887Y175013D01*
X262500Y174213D02*X261113Y175013D01*
X262500Y156713D02*Y155113D01*
Y156713D02*X263887Y157513D01*
X262500Y156713D02*X261113Y157513D01*
X140000Y214213D02*Y212613D01*
Y214213D02*X141387Y215013D01*
X140000Y214213D02*X138613Y215013D01*
X140000Y189213D02*Y187613D01*
Y189213D02*X141387Y190013D01*
X140000Y189213D02*X138613Y190013D01*
X125000Y84213D02*Y82613D01*
Y84213D02*X126387Y85013D01*
X125000Y84213D02*X123613Y85013D01*
X125000Y64213D02*Y62613D01*
Y64213D02*X126387Y65013D01*
X125000Y64213D02*X123613Y65013D01*
X15000Y430463D02*Y428863D01*
Y430463D02*X16387Y431263D01*
X15000Y430463D02*X13613Y431263D01*
X135000Y432713D02*X136500Y429713D01*
X138000Y432713D01*
X136500Y429713D02*Y426713D01*
X139800Y430013D02*X142050D01*
X139800Y426713D02*X142800D01*
X139800Y432713D02*Y426713D01*
Y432713D02*X142800D01*
X147600D02*X148350Y431963D01*
X145350Y432713D02*X147600D01*
X144600Y431963D02*X145350Y432713D01*
X144600Y431963D02*Y430463D01*
X145350Y429713D01*
X147600D01*
X148350Y428963D01*
Y427463D01*
X147600Y426713D02*X148350Y427463D01*
X145350Y426713D02*X147600D01*
X144600Y427463D02*X145350Y426713D01*
X98000Y431513D02*X99200Y432713D01*
Y426713D01*
X98000D02*X100250D01*
X104300Y432713D02*X105050Y431963D01*
X102800Y432713D02*X104300D01*
X102050Y431963D02*X102800Y432713D01*
X102050Y431963D02*Y427463D01*
X102800Y426713D01*
X104300Y430013D02*X105050Y429263D01*
X102050Y430013D02*X104300D01*
X102800Y426713D02*X104300D01*
X105050Y427463D01*
Y429263D02*Y427463D01*
X45000D02*X45750Y426713D01*
X45000Y431963D02*Y427463D01*
Y431963D02*X45750Y432713D01*
X47250D01*
X48000Y431963D01*
Y427463D01*
X47250Y426713D02*X48000Y427463D01*
X45750Y426713D02*X47250D01*
X45000Y428213D02*X48000Y431213D01*
X49800Y426713D02*X50550D01*
X52350Y427463D02*X53100Y426713D01*
X52350Y431963D02*Y427463D01*
Y431963D02*X53100Y432713D01*
X54600D01*
X55350Y431963D01*
Y427463D01*
X54600Y426713D02*X55350Y427463D01*
X53100Y426713D02*X54600D01*
X52350Y428213D02*X55350Y431213D01*
X57150Y431963D02*X57900Y432713D01*
X60150D01*
X60900Y431963D01*
Y430463D01*
X57150Y426713D02*X60900Y430463D01*
X57150Y426713D02*X60900D01*
X62700Y427463D02*X63450Y426713D01*
X62700Y431963D02*Y427463D01*
Y431963D02*X63450Y432713D01*
X64950D01*
X65700Y431963D01*
Y427463D01*
X64950Y426713D02*X65700Y427463D01*
X63450Y426713D02*X64950D01*
X62700Y428213D02*X65700Y431213D01*
X3000Y447713D02*X3750Y446963D01*
X750Y447713D02*X3000D01*
X0Y446963D02*X750Y447713D01*
X0Y446963D02*Y445463D01*
X750Y444713D01*
X3000D01*
X3750Y443963D01*
Y442463D01*
X3000Y441713D02*X3750Y442463D01*
X750Y441713D02*X3000D01*
X0Y442463D02*X750Y441713D01*
X5550Y444713D02*Y442463D01*
X6300Y441713D01*
X8550Y444713D02*Y440213D01*
X7800Y439463D02*X8550Y440213D01*
X6300Y439463D02*X7800D01*
X5550Y440213D02*X6300Y439463D01*
Y441713D02*X7800D01*
X8550Y442463D01*
X11100Y443963D02*Y441713D01*
Y443963D02*X11850Y444713D01*
X12600D01*
X13350Y443963D01*
Y441713D01*
Y443963D02*X14100Y444713D01*
X14850D01*
X15600Y443963D01*
Y441713D01*
X10350Y444713D02*X11100Y443963D01*
X17400Y447713D02*Y441713D01*
Y442463D02*X18150Y441713D01*
X19650D01*
X20400Y442463D01*
Y443963D02*Y442463D01*
X19650Y444713D02*X20400Y443963D01*
X18150Y444713D02*X19650D01*
X17400Y443963D02*X18150Y444713D01*
X22200Y443963D02*Y442463D01*
Y443963D02*X22950Y444713D01*
X24450D01*
X25200Y443963D01*
Y442463D01*
X24450Y441713D02*X25200Y442463D01*
X22950Y441713D02*X24450D01*
X22200Y442463D02*X22950Y441713D01*
X27000Y447713D02*Y442463D01*
X27750Y441713D01*
X0Y438463D02*X29250D01*
X41750Y447713D02*Y441713D01*
X43700Y447713D02*X44750Y446663D01*
Y442763D01*
X43700Y441713D02*X44750Y442763D01*
X41000Y441713D02*X43700D01*
X41000Y447713D02*X43700D01*
G54D79*X46550Y446213D02*Y446063D01*
G54D78*Y443963D02*Y441713D01*
X50300Y444713D02*X51050Y443963D01*
X48800Y444713D02*X50300D01*
X48050Y443963D02*X48800Y444713D01*
X48050Y443963D02*Y442463D01*
X48800Y441713D01*
X51050Y444713D02*Y442463D01*
X51800Y441713D01*
X48800D02*X50300D01*
X51050Y442463D01*
X54350Y443963D02*Y441713D01*
Y443963D02*X55100Y444713D01*
X55850D01*
X56600Y443963D01*
Y441713D01*
Y443963D02*X57350Y444713D01*
X58100D01*
X58850Y443963D01*
Y441713D01*
X53600Y444713D02*X54350Y443963D01*
X60650Y441713D02*X61400D01*
X65900Y442463D02*X66650Y441713D01*
X65900Y446963D02*X66650Y447713D01*
X65900Y446963D02*Y442463D01*
X68450Y447713D02*X69950D01*
X69200D02*Y441713D01*
X68450D02*X69950D01*
X72500Y443963D02*Y441713D01*
Y443963D02*X73250Y444713D01*
X74000D01*
X74750Y443963D01*
Y441713D01*
X71750Y444713D02*X72500Y443963D01*
X77300Y444713D02*X79550D01*
X76550Y443963D02*X77300Y444713D01*
X76550Y443963D02*Y442463D01*
X77300Y441713D01*
X79550D01*
X81350Y447713D02*Y441713D01*
Y443963D02*X82100Y444713D01*
X83600D01*
X84350Y443963D01*
Y441713D01*
X86150Y447713D02*X86900Y446963D01*
Y442463D01*
X86150Y441713D02*X86900Y442463D01*
X41000Y438463D02*X88700D01*
X96050Y441713D02*X98000D01*
X95000Y442763D02*X96050Y441713D01*
X95000Y446663D02*Y442763D01*
Y446663D02*X96050Y447713D01*
X98000D01*
X99800Y443963D02*Y442463D01*
Y443963D02*X100550Y444713D01*
X102050D01*
X102800Y443963D01*
Y442463D01*
X102050Y441713D02*X102800Y442463D01*
X100550Y441713D02*X102050D01*
X99800Y442463D02*X100550Y441713D01*
X104600Y444713D02*Y442463D01*
X105350Y441713D01*
X106850D01*
X107600Y442463D01*
Y444713D02*Y442463D01*
X110150Y443963D02*Y441713D01*
Y443963D02*X110900Y444713D01*
X111650D01*
X112400Y443963D01*
Y441713D01*
X109400Y444713D02*X110150Y443963D01*
X114950Y447713D02*Y442463D01*
X115700Y441713D01*
X114200Y445463D02*X115700D01*
X95000Y438463D02*X117200D01*
X130750Y447713D02*Y441713D01*
X130000Y447713D02*X133000D01*
X133750Y446963D01*
Y445463D01*
X133000Y444713D02*X133750Y445463D01*
X130750Y444713D02*X133000D01*
X135550Y447713D02*Y442463D01*
X136300Y441713D01*
X140050Y444713D02*X140800Y443963D01*
X138550Y444713D02*X140050D01*
X137800Y443963D02*X138550Y444713D01*
X137800Y443963D02*Y442463D01*
X138550Y441713D01*
X140800Y444713D02*Y442463D01*
X141550Y441713D01*
X138550D02*X140050D01*
X140800Y442463D01*
X144100Y447713D02*Y442463D01*
X144850Y441713D01*
X143350Y445463D02*X144850D01*
X147100Y441713D02*X149350D01*
X146350Y442463D02*X147100Y441713D01*
X146350Y443963D02*Y442463D01*
Y443963D02*X147100Y444713D01*
X148600D01*
X149350Y443963D01*
X146350Y443213D02*X149350D01*
Y443963D02*Y443213D01*
X154150Y447713D02*Y441713D01*
X153400D02*X154150Y442463D01*
X151900Y441713D02*X153400D01*
X151150Y442463D02*X151900Y441713D01*
X151150Y443963D02*Y442463D01*
Y443963D02*X151900Y444713D01*
X153400D01*
X154150Y443963D01*
X157450Y444713D02*Y443963D01*
Y442463D02*Y441713D01*
X155950Y446963D02*Y446213D01*
Y446963D02*X156700Y447713D01*
X158200D01*
X158950Y446963D01*
Y446213D01*
X157450Y444713D02*X158950Y446213D01*
X130000Y438463D02*X160750D01*
X0Y462713D02*X3000D01*
X1500D02*Y456713D01*
X4800Y462713D02*Y456713D01*
Y458963D02*X5550Y459713D01*
X7050D01*
X7800Y458963D01*
Y456713D01*
X10350D02*X12600D01*
X9600Y457463D02*X10350Y456713D01*
X9600Y458963D02*Y457463D01*
Y458963D02*X10350Y459713D01*
X11850D01*
X12600Y458963D01*
X9600Y458213D02*X12600D01*
Y458963D02*Y458213D01*
X15150Y458963D02*Y456713D01*
Y458963D02*X15900Y459713D01*
X17400D01*
X14400D02*X15150Y458963D01*
X19950Y456713D02*X22200D01*
X19200Y457463D02*X19950Y456713D01*
X19200Y458963D02*Y457463D01*
Y458963D02*X19950Y459713D01*
X21450D01*
X22200Y458963D01*
X19200Y458213D02*X22200D01*
Y458963D02*Y458213D01*
X28950Y459713D02*X29700Y458963D01*
X27450Y459713D02*X28950D01*
X26700Y458963D02*X27450Y459713D01*
X26700Y458963D02*Y457463D01*
X27450Y456713D01*
X29700Y459713D02*Y457463D01*
X30450Y456713D01*
X27450D02*X28950D01*
X29700Y457463D01*
X33000Y458963D02*Y456713D01*
Y458963D02*X33750Y459713D01*
X35250D01*
X32250D02*X33000Y458963D01*
X37800Y456713D02*X40050D01*
X37050Y457463D02*X37800Y456713D01*
X37050Y458963D02*Y457463D01*
Y458963D02*X37800Y459713D01*
X39300D01*
X40050Y458963D01*
X37050Y458213D02*X40050D01*
Y458963D02*Y458213D01*
X45300Y456713D02*X47550Y459713D01*
Y461963D02*Y459713D01*
X46800Y462713D02*X47550Y461963D01*
X45300Y462713D02*X46800D01*
X44550Y461963D02*X45300Y462713D01*
X44550Y461963D02*Y460463D01*
X45300Y459713D01*
X47550D01*
X55050Y462713D02*Y456713D01*
X54300D02*X55050Y457463D01*
X52800Y456713D02*X54300D01*
X52050Y457463D02*X52800Y456713D01*
X52050Y458963D02*Y457463D01*
Y458963D02*X52800Y459713D01*
X54300D01*
X55050Y458963D01*
G54D79*X56850Y461213D02*Y461063D01*
G54D78*Y458963D02*Y456713D01*
X59100Y461963D02*Y456713D01*
Y461963D02*X59850Y462713D01*
X60600D01*
X58350Y459713D02*X59850D01*
X62850Y461963D02*Y456713D01*
Y461963D02*X63600Y462713D01*
X64350D01*
X62100Y459713D02*X63600D01*
X66600Y456713D02*X68850D01*
X65850Y457463D02*X66600Y456713D01*
X65850Y458963D02*Y457463D01*
Y458963D02*X66600Y459713D01*
X68100D01*
X68850Y458963D01*
X65850Y458213D02*X68850D01*
Y458963D02*Y458213D01*
X71400Y458963D02*Y456713D01*
Y458963D02*X72150Y459713D01*
X73650D01*
X70650D02*X71400Y458963D01*
X76200Y456713D02*X78450D01*
X75450Y457463D02*X76200Y456713D01*
X75450Y458963D02*Y457463D01*
Y458963D02*X76200Y459713D01*
X77700D01*
X78450Y458963D01*
X75450Y458213D02*X78450D01*
Y458963D02*Y458213D01*
X81000Y458963D02*Y456713D01*
Y458963D02*X81750Y459713D01*
X82500D01*
X83250Y458963D01*
Y456713D01*
X80250Y459713D02*X81000Y458963D01*
X85800Y462713D02*Y457463D01*
X86550Y456713D01*
X85050Y460463D02*X86550D01*
X93750Y462713D02*Y456713D01*
X93000D02*X93750Y457463D01*
X91500Y456713D02*X93000D01*
X90750Y457463D02*X91500Y456713D01*
X90750Y458963D02*Y457463D01*
Y458963D02*X91500Y459713D01*
X93000D01*
X93750Y458963D01*
X96300D02*Y456713D01*
Y458963D02*X97050Y459713D01*
X98550D01*
X95550D02*X96300Y458963D01*
G54D79*X100350Y461213D02*Y461063D01*
G54D78*Y458963D02*Y456713D01*
X101850Y462713D02*Y457463D01*
X102600Y456713D01*
X104100Y462713D02*Y457463D01*
X104850Y456713D01*
X109800D02*X112050D01*
X112800Y457463D01*
X112050Y458213D02*X112800Y457463D01*
X109800Y458213D02*X112050D01*
X109050Y458963D02*X109800Y458213D01*
X109050Y458963D02*X109800Y459713D01*
X112050D01*
X112800Y458963D01*
X109050Y457463D02*X109800Y456713D01*
G54D79*X114600Y461213D02*Y461063D01*
G54D78*Y458963D02*Y456713D01*
X116100Y459713D02*X119100D01*
X116100Y456713D02*X119100Y459713D01*
X116100Y456713D02*X119100D01*
X121650D02*X123900D01*
X120900Y457463D02*X121650Y456713D01*
X120900Y458963D02*Y457463D01*
Y458963D02*X121650Y459713D01*
X123150D01*
X123900Y458963D01*
X120900Y458213D02*X123900D01*
Y458963D02*Y458213D01*
X126450Y456713D02*X128700D01*
X129450Y457463D01*
X128700Y458213D02*X129450Y457463D01*
X126450Y458213D02*X128700D01*
X125700Y458963D02*X126450Y458213D01*
X125700Y458963D02*X126450Y459713D01*
X128700D01*
X129450Y458963D01*
X125700Y457463D02*X126450Y456713D01*
X133950Y459713D02*Y457463D01*
X134700Y456713D01*
X136200D01*
X136950Y457463D01*
Y459713D02*Y457463D01*
X139500Y456713D02*X141750D01*
X142500Y457463D01*
X141750Y458213D02*X142500Y457463D01*
X139500Y458213D02*X141750D01*
X138750Y458963D02*X139500Y458213D01*
X138750Y458963D02*X139500Y459713D01*
X141750D01*
X142500Y458963D01*
X138750Y457463D02*X139500Y456713D01*
X145050D02*X147300D01*
X144300Y457463D02*X145050Y456713D01*
X144300Y458963D02*Y457463D01*
Y458963D02*X145050Y459713D01*
X146550D01*
X147300Y458963D01*
X144300Y458213D02*X147300D01*
Y458963D02*Y458213D01*
X152100Y462713D02*Y456713D01*
X151350D02*X152100Y457463D01*
X149850Y456713D02*X151350D01*
X149100Y457463D02*X149850Y456713D01*
X149100Y458963D02*Y457463D01*
Y458963D02*X149850Y459713D01*
X151350D01*
X152100Y458963D01*
G54D79*X156600Y461213D02*Y461063D01*
G54D78*Y458963D02*Y456713D01*
X158850Y458963D02*Y456713D01*
Y458963D02*X159600Y459713D01*
X160350D01*
X161100Y458963D01*
Y456713D01*
X158100Y459713D02*X158850Y458963D01*
X166350Y462713D02*Y457463D01*
X167100Y456713D01*
X165600Y460463D02*X167100D01*
X168600Y462713D02*Y456713D01*
Y458963D02*X169350Y459713D01*
X170850D01*
X171600Y458963D01*
Y456713D01*
G54D79*X173400Y461213D02*Y461063D01*
G54D78*Y458963D02*Y456713D01*
X175650D02*X177900D01*
X178650Y457463D01*
X177900Y458213D02*X178650Y457463D01*
X175650Y458213D02*X177900D01*
X174900Y458963D02*X175650Y458213D01*
X174900Y458963D02*X175650Y459713D01*
X177900D01*
X178650Y458963D01*
X174900Y457463D02*X175650Y456713D01*
X183150Y462713D02*Y457463D01*
X183900Y456713D01*
X187650Y459713D02*X188400Y458963D01*
X186150Y459713D02*X187650D01*
X185400Y458963D02*X186150Y459713D01*
X185400Y458963D02*Y457463D01*
X186150Y456713D01*
X188400Y459713D02*Y457463D01*
X189150Y456713D01*
X186150D02*X187650D01*
X188400Y457463D01*
X190950Y459713D02*Y457463D01*
X191700Y456713D01*
X193950Y459713D02*Y455213D01*
X193200Y454463D02*X193950Y455213D01*
X191700Y454463D02*X193200D01*
X190950Y455213D02*X191700Y454463D01*
Y456713D02*X193200D01*
X193950Y457463D01*
X195750Y458963D02*Y457463D01*
Y458963D02*X196500Y459713D01*
X198000D01*
X198750Y458963D01*
Y457463D01*
X198000Y456713D02*X198750Y457463D01*
X196500Y456713D02*X198000D01*
X195750Y457463D02*X196500Y456713D01*
X200550Y459713D02*Y457463D01*
X201300Y456713D01*
X202800D01*
X203550Y457463D01*
Y459713D02*Y457463D01*
X206100Y462713D02*Y457463D01*
X206850Y456713D01*
X205350Y460463D02*X206850D01*
X208350Y455213D02*X209850Y456713D01*
X214350Y461963D02*X215100Y462713D01*
X217350D01*
X218100Y461963D01*
Y460463D01*
X214350Y456713D02*X218100Y460463D01*
X214350Y456713D02*X218100D01*
X219900Y457463D02*X220650Y456713D01*
X219900Y461963D02*Y457463D01*
Y461963D02*X220650Y462713D01*
X222150D01*
X222900Y461963D01*
Y457463D01*
X222150Y456713D02*X222900Y457463D01*
X220650Y456713D02*X222150D01*
X219900Y458213D02*X222900Y461213D01*
X224700Y457463D02*X225450Y456713D01*
X224700Y458663D02*Y457463D01*
Y458663D02*X225750Y459713D01*
X226650D01*
X227700Y458663D01*
Y457463D01*
X226950Y456713D02*X227700Y457463D01*
X225450Y456713D02*X226950D01*
X224700Y460763D02*X225750Y459713D01*
X224700Y461963D02*Y460763D01*
Y461963D02*X225450Y462713D01*
X226950D01*
X227700Y461963D01*
Y460763D01*
X226650Y459713D02*X227700Y460763D01*
X232200Y462713D02*Y456713D01*
Y458963D02*X232950Y459713D01*
X234450D01*
X235200Y458963D01*
Y456713D01*
X237000Y458963D02*Y457463D01*
Y458963D02*X237750Y459713D01*
X239250D01*
X240000Y458963D01*
Y457463D01*
X239250Y456713D02*X240000Y457463D01*
X237750Y456713D02*X239250D01*
X237000Y457463D02*X237750Y456713D01*
X241800Y462713D02*Y457463D01*
X242550Y456713D01*
X244800D02*X247050D01*
X244050Y457463D02*X244800Y456713D01*
X244050Y458963D02*Y457463D01*
Y458963D02*X244800Y459713D01*
X246300D01*
X247050Y458963D01*
X244050Y458213D02*X247050D01*
Y458963D02*Y458213D01*
X249600Y456713D02*X251850D01*
X252600Y457463D01*
X251850Y458213D02*X252600Y457463D01*
X249600Y458213D02*X251850D01*
X248850Y458963D02*X249600Y458213D01*
X248850Y458963D02*X249600Y459713D01*
X251850D01*
X252600Y458963D01*
X248850Y457463D02*X249600Y456713D01*
X257850Y462713D02*Y457463D01*
X258600Y456713D01*
X257100Y460463D02*X258600D01*
X260100Y458963D02*Y457463D01*
Y458963D02*X260850Y459713D01*
X262350D01*
X263100Y458963D01*
Y457463D01*
X262350Y456713D02*X263100Y457463D01*
X260850Y456713D02*X262350D01*
X260100Y457463D02*X260850Y456713D01*
X265650Y462713D02*Y457463D01*
X266400Y456713D01*
X264900Y460463D02*X266400D01*
X270150Y459713D02*X270900Y458963D01*
X268650Y459713D02*X270150D01*
X267900Y458963D02*X268650Y459713D01*
X267900Y458963D02*Y457463D01*
X268650Y456713D01*
X270900Y459713D02*Y457463D01*
X271650Y456713D01*
X268650D02*X270150D01*
X270900Y457463D01*
X273450Y462713D02*Y457463D01*
X274200Y456713D01*
G54D76*X395000Y4213D02*X375000D01*
X395000D02*Y24213D01*
Y4213D02*X0D01*
Y299213D01*
X395000D01*
Y4213D01*
G54D78*X112494Y-9500D02*X115494D01*
X116244Y-8750D01*
Y-6950D02*Y-8750D01*
X115494Y-6200D02*X116244Y-6950D01*
X113244Y-6200D02*X115494D01*
X113244Y-3500D02*Y-9500D01*
X112494Y-3500D02*X115494D01*
X116244Y-4250D01*
Y-5450D01*
X115494Y-6200D02*X116244Y-5450D01*
X118044Y-7250D02*Y-8750D01*
Y-7250D02*X118794Y-6500D01*
X120294D01*
X121044Y-7250D01*
Y-8750D01*
X120294Y-9500D02*X121044Y-8750D01*
X118794Y-9500D02*X120294D01*
X118044Y-8750D02*X118794Y-9500D01*
X125094Y-6500D02*X125844Y-7250D01*
X123594Y-6500D02*X125094D01*
X122844Y-7250D02*X123594Y-6500D01*
X122844Y-7250D02*Y-8750D01*
X123594Y-9500D01*
X125844Y-6500D02*Y-8750D01*
X126594Y-9500D01*
X123594D02*X125094D01*
X125844Y-8750D01*
X129144Y-7250D02*Y-9500D01*
Y-7250D02*X129894Y-6500D01*
X131394D01*
X128394D02*X129144Y-7250D01*
X136194Y-3500D02*Y-9500D01*
X135444D02*X136194Y-8750D01*
X133944Y-9500D02*X135444D01*
X133194Y-8750D02*X133944Y-9500D01*
X133194Y-7250D02*Y-8750D01*
Y-7250D02*X133944Y-6500D01*
X135444D01*
X136194Y-7250D01*
X140694D02*Y-8750D01*
Y-7250D02*X141444Y-6500D01*
X142944D01*
X143694Y-7250D01*
Y-8750D01*
X142944Y-9500D02*X143694Y-8750D01*
X141444Y-9500D02*X142944D01*
X140694Y-8750D02*X141444Y-9500D01*
X145494Y-6500D02*Y-8750D01*
X146244Y-9500D01*
X147744D01*
X148494Y-8750D01*
Y-6500D02*Y-8750D01*
X151044Y-3500D02*Y-8750D01*
X151794Y-9500D01*
X150294Y-5750D02*X151794D01*
X153294Y-3500D02*Y-8750D01*
X154044Y-9500D01*
G54D79*X155544Y-5000D02*Y-5150D01*
G54D78*Y-7250D02*Y-9500D01*
X157794Y-7250D02*Y-9500D01*
Y-7250D02*X158544Y-6500D01*
X159294D01*
X160044Y-7250D01*
Y-9500D01*
X157044Y-6500D02*X157794Y-7250D01*
X162594Y-9500D02*X164844D01*
X161844Y-8750D02*X162594Y-9500D01*
X161844Y-7250D02*Y-8750D01*
Y-7250D02*X162594Y-6500D01*
X164094D01*
X164844Y-7250D01*
X161844Y-8000D02*X164844D01*
Y-7250D02*Y-8000D01*
G54D79*X169344Y-5000D02*Y-5150D01*
G54D78*Y-7250D02*Y-9500D01*
X171594D02*X173844D01*
X174594Y-8750D01*
X173844Y-8000D02*X174594Y-8750D01*
X171594Y-8000D02*X173844D01*
X170844Y-7250D02*X171594Y-8000D01*
X170844Y-7250D02*X171594Y-6500D01*
X173844D01*
X174594Y-7250D01*
X170844Y-8750D02*X171594Y-9500D01*
X179844Y-3500D02*Y-8750D01*
X180594Y-9500D01*
X179094Y-5750D02*X180594D01*
X182094Y-3500D02*Y-9500D01*
Y-7250D02*X182844Y-6500D01*
X184344D01*
X185094Y-7250D01*
Y-9500D01*
X187644D02*X189894D01*
X186894Y-8750D02*X187644Y-9500D01*
X186894Y-7250D02*Y-8750D01*
Y-7250D02*X187644Y-6500D01*
X189144D01*
X189894Y-7250D01*
X186894Y-8000D02*X189894D01*
Y-7250D02*Y-8000D01*
X195144Y-6500D02*X197394D01*
X194394Y-7250D02*X195144Y-6500D01*
X194394Y-7250D02*Y-8750D01*
X195144Y-9500D01*
X197394D01*
X199944D02*X202194D01*
X199194Y-8750D02*X199944Y-9500D01*
X199194Y-7250D02*Y-8750D01*
Y-7250D02*X199944Y-6500D01*
X201444D01*
X202194Y-7250D01*
X199194Y-8000D02*X202194D01*
Y-7250D02*Y-8000D01*
X204744Y-7250D02*Y-9500D01*
Y-7250D02*X205494Y-6500D01*
X206244D01*
X206994Y-7250D01*
Y-9500D01*
X203994Y-6500D02*X204744Y-7250D01*
X209544Y-3500D02*Y-8750D01*
X210294Y-9500D01*
X208794Y-5750D02*X210294D01*
X212544Y-9500D02*X214794D01*
X211794Y-8750D02*X212544Y-9500D01*
X211794Y-7250D02*Y-8750D01*
Y-7250D02*X212544Y-6500D01*
X214044D01*
X214794Y-7250D01*
X211794Y-8000D02*X214794D01*
Y-7250D02*Y-8000D01*
X217344Y-7250D02*Y-9500D01*
Y-7250D02*X218094Y-6500D01*
X219594D01*
X216594D02*X217344Y-7250D01*
X221394Y-3500D02*Y-8750D01*
X222144Y-9500D01*
G54D79*X223644Y-5000D02*Y-5150D01*
G54D78*Y-7250D02*Y-9500D01*
X225894Y-7250D02*Y-9500D01*
Y-7250D02*X226644Y-6500D01*
X227394D01*
X228144Y-7250D01*
Y-9500D01*
X225144Y-6500D02*X225894Y-7250D01*
X230694Y-9500D02*X232944D01*
X229944Y-8750D02*X230694Y-9500D01*
X229944Y-7250D02*Y-8750D01*
Y-7250D02*X230694Y-6500D01*
X232194D01*
X232944Y-7250D01*
X229944Y-8000D02*X232944D01*
Y-7250D02*Y-8000D01*
X237444Y-7250D02*Y-8750D01*
Y-7250D02*X238194Y-6500D01*
X239694D01*
X240444Y-7250D01*
Y-8750D01*
X239694Y-9500D02*X240444Y-8750D01*
X238194Y-9500D02*X239694D01*
X237444Y-8750D02*X238194Y-9500D01*
X242994Y-4250D02*Y-9500D01*
Y-4250D02*X243744Y-3500D01*
X244494D01*
X242244Y-6500D02*X243744D01*
X249444Y-3500D02*Y-8750D01*
X250194Y-9500D01*
X248694Y-5750D02*X250194D01*
X251694Y-3500D02*Y-9500D01*
Y-7250D02*X252444Y-6500D01*
X253944D01*
X254694Y-7250D01*
Y-9500D01*
G54D79*X256494Y-5000D02*Y-5150D01*
G54D78*Y-7250D02*Y-9500D01*
X258744D02*X260994D01*
X261744Y-8750D01*
X260994Y-8000D02*X261744Y-8750D01*
X258744Y-8000D02*X260994D01*
X257994Y-7250D02*X258744Y-8000D01*
X257994Y-7250D02*X258744Y-6500D01*
X260994D01*
X261744Y-7250D01*
X257994Y-8750D02*X258744Y-9500D01*
X266994Y-7250D02*Y-11750D01*
X266244Y-6500D02*X266994Y-7250D01*
X267744Y-6500D01*
X269244D01*
X269994Y-7250D01*
Y-8750D01*
X269244Y-9500D02*X269994Y-8750D01*
X267744Y-9500D02*X269244D01*
X266994Y-8750D02*X267744Y-9500D01*
X274044Y-6500D02*X274794Y-7250D01*
X272544Y-6500D02*X274044D01*
X271794Y-7250D02*X272544Y-6500D01*
X271794Y-7250D02*Y-8750D01*
X272544Y-9500D01*
X274794Y-6500D02*Y-8750D01*
X275544Y-9500D01*
X272544D02*X274044D01*
X274794Y-8750D01*
X278094Y-3500D02*Y-8750D01*
X278844Y-9500D01*
X277344Y-5750D02*X278844D01*
X280344Y-3500D02*Y-9500D01*
Y-7250D02*X281094Y-6500D01*
X282594D01*
X283344Y-7250D01*
Y-9500D01*
X200750Y327713D02*Y321713D01*
X202700Y327713D02*X203750Y326663D01*
Y322763D01*
X202700Y321713D02*X203750Y322763D01*
X200000Y321713D02*X202700D01*
X200000Y327713D02*X202700D01*
X207800Y324713D02*X208550Y323963D01*
X206300Y324713D02*X207800D01*
X205550Y323963D02*X206300Y324713D01*
X205550Y323963D02*Y322463D01*
X206300Y321713D01*
X208550Y324713D02*Y322463D01*
X209300Y321713D01*
X206300D02*X207800D01*
X208550Y322463D01*
X211850Y327713D02*Y322463D01*
X212600Y321713D01*
X211100Y325463D02*X212600D01*
X214850Y321713D02*X217100D01*
X214100Y322463D02*X214850Y321713D01*
X214100Y323963D02*Y322463D01*
Y323963D02*X214850Y324713D01*
X216350D01*
X217100Y323963D01*
X214100Y323213D02*X217100D01*
Y323963D02*Y323213D01*
X218900Y325463D02*X219650D01*
X218900Y323963D02*X219650D01*
X224150Y327713D02*Y321713D01*
Y327713D02*X227900Y321713D01*
Y327713D02*Y321713D01*
X230450D02*X232700D01*
X229700Y322463D02*X230450Y321713D01*
X229700Y323963D02*Y322463D01*
Y323963D02*X230450Y324713D01*
X231950D01*
X232700Y323963D01*
X229700Y323213D02*X232700D01*
Y323963D02*Y323213D01*
G54D80*G36*
X234500Y329213D02*Y319463D01*
X242000D01*
Y329213D01*
X234500D01*
G37*
G36*
X243500D02*Y319463D01*
X251000D01*
Y329213D01*
X243500D01*
G37*
G54D78*X252500Y326963D02*X253250Y327713D01*
X255500D01*
X256250Y326963D01*
Y325463D01*
X252500Y321713D02*X256250Y325463D01*
X252500Y321713D02*X256250D01*
X258050Y322463D02*X258800Y321713D01*
X258050Y323663D02*Y322463D01*
Y323663D02*X259100Y324713D01*
X260000D01*
X261050Y323663D01*
Y322463D01*
X260300Y321713D02*X261050Y322463D01*
X258800Y321713D02*X260300D01*
X258050Y325763D02*X259100Y324713D01*
X258050Y326963D02*Y325763D01*
Y326963D02*X258800Y327713D01*
X260300D01*
X261050Y326963D01*
Y325763D01*
X260000Y324713D02*X261050Y325763D01*
X262850Y321713D02*X263600D01*
G54D80*G36*
X265400Y329213D02*Y319463D01*
X272900D01*
Y329213D01*
X265400D01*
G37*
G36*
X274400D02*Y319463D01*
X281900D01*
Y329213D01*
X274400D01*
G37*
G54D78*X283400Y327713D02*Y322463D01*
X284150Y321713D01*
X286400D02*X288650D01*
X285650Y322463D02*X286400Y321713D01*
X285650Y323963D02*Y322463D01*
Y323963D02*X286400Y324713D01*
X287900D01*
X288650Y323963D01*
X285650Y323213D02*X288650D01*
Y323963D02*Y323213D01*
X293450Y327713D02*Y321713D01*
X292700D02*X293450Y322463D01*
X291200Y321713D02*X292700D01*
X290450Y322463D02*X291200Y321713D01*
X290450Y323963D02*Y322463D01*
Y323963D02*X291200Y324713D01*
X292700D01*
X293450Y323963D01*
X296000Y321713D02*X298250D01*
X295250Y322463D02*X296000Y321713D01*
X295250Y323963D02*Y322463D01*
Y323963D02*X296000Y324713D01*
X297500D01*
X298250Y323963D01*
X295250Y323213D02*X298250D01*
Y323963D02*Y323213D01*
X300800Y323963D02*Y321713D01*
Y323963D02*X301550Y324713D01*
X302300D01*
X303050Y323963D01*
Y321713D01*
X300050Y324713D02*X300800Y323963D01*
G54D80*G36*
X304850Y329213D02*Y319463D01*
X312350D01*
Y329213D01*
X304850D01*
G37*
G36*
X313850D02*Y319463D01*
X321350D01*
Y329213D01*
X313850D01*
G37*
G54D78*X322850Y326963D02*X323600Y327713D01*
X325850D01*
X326600Y326963D01*
Y325463D01*
X322850Y321713D02*X326600Y325463D01*
X322850Y321713D02*X326600D01*
X328400Y322463D02*X329150Y321713D01*
X328400Y326963D02*Y322463D01*
Y326963D02*X329150Y327713D01*
X330650D01*
X331400Y326963D01*
Y322463D01*
X330650Y321713D02*X331400Y322463D01*
X329150Y321713D02*X330650D01*
X328400Y323213D02*X331400Y326213D01*
X333200Y326513D02*X334400Y327713D01*
Y321713D01*
X333200D02*X335450D01*
X337250Y322463D02*X338000Y321713D01*
X337250Y323663D02*Y322463D01*
Y323663D02*X338300Y324713D01*
X339200D01*
X340250Y323663D01*
Y322463D01*
X339500Y321713D02*X340250Y322463D01*
X338000Y321713D02*X339500D01*
X337250Y325763D02*X338300Y324713D01*
X337250Y326963D02*Y325763D01*
Y326963D02*X338000Y327713D01*
X339500D01*
X340250Y326963D01*
Y325763D01*
X339200Y324713D02*X340250Y325763D01*
X342050Y320213D02*X343550Y321713D01*
G54D80*G36*
X345350Y329213D02*Y319463D01*
X352850D01*
Y329213D01*
X345350D01*
G37*
G36*
X354350D02*Y319463D01*
X361850D01*
Y329213D01*
X354350D01*
G37*
G54D78*X363350Y326513D02*X364550Y327713D01*
Y321713D01*
X363350D02*X365600D01*
X367400Y322463D02*X368150Y321713D01*
X367400Y323663D02*Y322463D01*
Y323663D02*X368450Y324713D01*
X369350D01*
X370400Y323663D01*
Y322463D01*
X369650Y321713D02*X370400Y322463D01*
X368150Y321713D02*X369650D01*
X367400Y325763D02*X368450Y324713D01*
X367400Y326963D02*Y325763D01*
Y326963D02*X368150Y327713D01*
X369650D01*
X370400Y326963D01*
Y325763D01*
X369350Y324713D02*X370400Y325763D01*
X372200Y325463D02*X372950D01*
X372200Y323963D02*X372950D01*
X374750D02*X377750Y327713D01*
X374750Y323963D02*X378500D01*
X377750Y327713D02*Y321713D01*
X381050D02*X384050Y327713D01*
X380300D02*X384050D01*
X385850Y325463D02*X386600D01*
X385850Y323963D02*X386600D01*
X388400Y326963D02*X389150Y327713D01*
X390650D01*
X391400Y326963D01*
X390650Y321713D02*X391400Y322463D01*
X389150Y321713D02*X390650D01*
X388400Y322463D02*X389150Y321713D01*
Y325013D02*X390650D01*
X391400Y326963D02*Y325763D01*
Y324263D02*Y322463D01*
Y324263D02*X390650Y325013D01*
X391400Y325763D02*X390650Y325013D01*
X393950Y321713D02*X396200Y324713D01*
Y326963D02*Y324713D01*
X395450Y327713D02*X396200Y326963D01*
X393950Y327713D02*X395450D01*
X393200Y326963D02*X393950Y327713D01*
X393200Y326963D02*Y325463D01*
X393950Y324713D01*
X396200D01*
G54D80*G36*
X398000Y329213D02*Y319463D01*
X405500D01*
Y329213D01*
X398000D01*
G37*
G36*
X407000D02*Y319463D01*
X414500D01*
Y329213D01*
X407000D01*
G37*
G54D78*X419000Y327713D02*X419750Y326963D01*
X416750Y327713D02*X419000D01*
X416000Y326963D02*X416750Y327713D01*
X416000Y326963D02*Y322463D01*
X416750Y321713D01*
X419000D01*
X419750Y322463D01*
Y323963D02*Y322463D01*
X419000Y324713D02*X419750Y323963D01*
X417500Y324713D02*X419000D01*
X421550Y327713D02*Y321713D01*
Y327713D02*X423800Y324713D01*
X426050Y327713D01*
Y321713D01*
X427850Y327713D02*X430850D01*
X429350D02*Y321713D01*
X435350Y327713D02*Y322463D01*
X436100Y321713D01*
X437600D01*
X438350Y322463D01*
Y327713D02*Y322463D01*
X440150Y327713D02*X443150D01*
X441650D02*Y321713D01*
X446000D02*X447950D01*
X444950Y322763D02*X446000Y321713D01*
X444950Y326663D02*Y322763D01*
Y326663D02*X446000Y327713D01*
X447950D01*
X200000Y341213D02*Y336713D01*
Y341213D02*X201050Y342713D01*
X202700D01*
X203750Y341213D01*
Y336713D01*
X200000Y339713D02*X203750D01*
X205550D02*Y337463D01*
X206300Y336713D01*
X207800D01*
X208550Y337463D01*
Y339713D02*Y337463D01*
X211100Y342713D02*Y337463D01*
X211850Y336713D01*
X210350Y340463D02*X211850D01*
X213350Y342713D02*Y336713D01*
Y338963D02*X214100Y339713D01*
X215600D01*
X216350Y338963D01*
Y336713D01*
X218150Y338963D02*Y337463D01*
Y338963D02*X218900Y339713D01*
X220400D01*
X221150Y338963D01*
Y337463D01*
X220400Y336713D02*X221150Y337463D01*
X218900Y336713D02*X220400D01*
X218150Y337463D02*X218900Y336713D01*
X223700Y338963D02*Y336713D01*
Y338963D02*X224450Y339713D01*
X225950D01*
X222950D02*X223700Y338963D01*
X227750Y340463D02*X228500D01*
X227750Y338963D02*X228500D01*
X233000Y342713D02*Y336713D01*
Y342713D02*X235250Y339713D01*
X237500Y342713D01*
Y336713D01*
X241550Y339713D02*X242300Y338963D01*
X240050Y339713D02*X241550D01*
X239300Y338963D02*X240050Y339713D01*
X239300Y338963D02*Y337463D01*
X240050Y336713D01*
X242300Y339713D02*Y337463D01*
X243050Y336713D01*
X240050D02*X241550D01*
X242300Y337463D01*
X245600Y338963D02*Y336713D01*
Y338963D02*X246350Y339713D01*
X247850D01*
X244850D02*X245600Y338963D01*
G54D79*X249650Y341213D02*Y341063D01*
G54D78*Y338963D02*Y336713D01*
X251150Y339713D02*Y337463D01*
X251900Y336713D01*
X253400D01*
X254150Y337463D01*
Y339713D02*Y337463D01*
X256700Y336713D02*X258950D01*
X259700Y337463D01*
X258950Y338213D02*X259700Y337463D01*
X256700Y338213D02*X258950D01*
X255950Y338963D02*X256700Y338213D01*
X255950Y338963D02*X256700Y339713D01*
X258950D01*
X259700Y338963D01*
X255950Y337463D02*X256700Y336713D01*
X261500Y339713D02*X264500D01*
X261500Y336713D02*X264500Y339713D01*
X261500Y336713D02*X264500D01*
X269000Y342713D02*Y336713D01*
X272000D01*
X273800Y339713D02*Y337463D01*
X274550Y336713D01*
X276050D01*
X276800Y337463D01*
Y339713D02*Y337463D01*
X278600Y342713D02*Y336713D01*
Y337463D02*X279350Y336713D01*
X280850D01*
X281600Y337463D01*
Y338963D02*Y337463D01*
X280850Y339713D02*X281600Y338963D01*
X279350Y339713D02*X280850D01*
X278600Y338963D02*X279350Y339713D01*
G54D79*X283400Y341213D02*Y341063D01*
G54D78*Y338963D02*Y336713D01*
X285650Y338963D02*Y336713D01*
Y338963D02*X286400Y339713D01*
X287150D01*
X287900Y338963D01*
Y336713D01*
X284900Y339713D02*X285650Y338963D01*
X291950Y339713D02*X292700Y338963D01*
X290450Y339713D02*X291950D01*
X289700Y338963D02*X290450Y339713D01*
X289700Y338963D02*Y337463D01*
X290450Y336713D01*
X292700Y339713D02*Y337463D01*
X293450Y336713D01*
X290450D02*X291950D01*
X292700Y337463D01*
X200000Y357713D02*X203000D01*
X201500D02*Y351713D01*
G54D79*X204800Y356213D02*Y356063D01*
G54D78*Y353963D02*Y351713D01*
X207050Y357713D02*Y352463D01*
X207800Y351713D01*
X206300Y355463D02*X207800D01*
X209300Y357713D02*Y352463D01*
X210050Y351713D01*
X212300D02*X214550D01*
X211550Y352463D02*X212300Y351713D01*
X211550Y353963D02*Y352463D01*
Y353963D02*X212300Y354713D01*
X213800D01*
X214550Y353963D01*
X211550Y353213D02*X214550D01*
Y353963D02*Y353213D01*
X216350Y355463D02*X217100D01*
X216350Y353963D02*X217100D01*
X221600Y352463D02*X222350Y351713D01*
X221600Y356963D02*X222350Y357713D01*
X221600Y356963D02*Y352463D01*
X224150Y354713D02*Y352463D01*
X224900Y351713D01*
X226400D01*
X227150Y352463D01*
Y354713D02*Y352463D01*
X229700Y353963D02*Y351713D01*
Y353963D02*X230450Y354713D01*
X231200D01*
X231950Y353963D01*
Y351713D01*
X228950Y354713D02*X229700Y353963D01*
X233750Y357713D02*Y351713D01*
Y353963D02*X236000Y351713D01*
X233750Y353963D02*X235250Y355463D01*
X238550Y353963D02*Y351713D01*
Y353963D02*X239300Y354713D01*
X240050D01*
X240800Y353963D01*
Y351713D01*
X237800Y354713D02*X238550Y353963D01*
X242600D02*Y352463D01*
Y353963D02*X243350Y354713D01*
X244850D01*
X245600Y353963D01*
Y352463D01*
X244850Y351713D02*X245600Y352463D01*
X243350Y351713D02*X244850D01*
X242600Y352463D02*X243350Y351713D01*
X247400Y354713D02*Y352463D01*
X248150Y351713D01*
X248900D01*
X249650Y352463D01*
Y354713D02*Y352463D01*
X250400Y351713D01*
X251150D01*
X251900Y352463D01*
Y354713D02*Y352463D01*
X254450Y353963D02*Y351713D01*
Y353963D02*X255200Y354713D01*
X255950D01*
X256700Y353963D01*
Y351713D01*
X253700Y354713D02*X254450Y353963D01*
X258500Y357713D02*X259250Y356963D01*
Y352463D01*
X258500Y351713D02*X259250Y352463D01*
X263750Y354713D02*X266750D01*
X271250Y357713D02*Y351713D01*
Y357713D02*X274250D01*
X271250Y355013D02*X273500D01*
X278300Y354713D02*X279050Y353963D01*
X276800Y354713D02*X278300D01*
X276050Y353963D02*X276800Y354713D01*
X276050Y353963D02*Y352463D01*
X276800Y351713D01*
X279050Y354713D02*Y352463D01*
X279800Y351713D01*
X276800D02*X278300D01*
X279050Y352463D01*
X281600Y357713D02*Y351713D01*
Y352463D02*X282350Y351713D01*
X283850D01*
X284600Y352463D01*
Y353963D02*Y352463D01*
X283850Y354713D02*X284600Y353963D01*
X282350Y354713D02*X283850D01*
X281600Y353963D02*X282350Y354713D01*
X287150Y353963D02*Y351713D01*
Y353963D02*X287900Y354713D01*
X289400D01*
X286400D02*X287150Y353963D01*
G54D79*X291200Y356213D02*Y356063D01*
G54D78*Y353963D02*Y351713D01*
X293450Y354713D02*X295700D01*
X292700Y353963D02*X293450Y354713D01*
X292700Y353963D02*Y352463D01*
X293450Y351713D01*
X295700D01*
X299750Y354713D02*X300500Y353963D01*
X298250Y354713D02*X299750D01*
X297500Y353963D02*X298250Y354713D01*
X297500Y353963D02*Y352463D01*
X298250Y351713D01*
X300500Y354713D02*Y352463D01*
X301250Y351713D01*
X298250D02*X299750D01*
X300500Y352463D01*
X303800Y357713D02*Y352463D01*
X304550Y351713D01*
X303050Y355463D02*X304550D01*
G54D79*X306050Y356213D02*Y356063D01*
G54D78*Y353963D02*Y351713D01*
X307550Y353963D02*Y352463D01*
Y353963D02*X308300Y354713D01*
X309800D01*
X310550Y353963D01*
Y352463D01*
X309800Y351713D02*X310550Y352463D01*
X308300Y351713D02*X309800D01*
X307550Y352463D02*X308300Y351713D01*
X313100Y353963D02*Y351713D01*
Y353963D02*X313850Y354713D01*
X314600D01*
X315350Y353963D01*
Y351713D01*
X312350Y354713D02*X313100Y353963D01*
X320600Y357713D02*Y351713D01*
X322550Y357713D02*X323600Y356663D01*
Y352763D01*
X322550Y351713D02*X323600Y352763D01*
X319850Y351713D02*X322550D01*
X319850Y357713D02*X322550D01*
X326150Y353963D02*Y351713D01*
Y353963D02*X326900Y354713D01*
X328400D01*
X325400D02*X326150Y353963D01*
X332450Y354713D02*X333200Y353963D01*
X330950Y354713D02*X332450D01*
X330200Y353963D02*X330950Y354713D01*
X330200Y353963D02*Y352463D01*
X330950Y351713D01*
X333200Y354713D02*Y352463D01*
X333950Y351713D01*
X330950D02*X332450D01*
X333200Y352463D01*
X335750Y354713D02*Y352463D01*
X336500Y351713D01*
X337250D01*
X338000Y352463D01*
Y354713D02*Y352463D01*
X338750Y351713D01*
X339500D01*
X340250Y352463D01*
Y354713D02*Y352463D01*
G54D79*X342050Y356213D02*Y356063D01*
G54D78*Y353963D02*Y351713D01*
X344300Y353963D02*Y351713D01*
Y353963D02*X345050Y354713D01*
X345800D01*
X346550Y353963D01*
Y351713D01*
X343550Y354713D02*X344300Y353963D01*
X350600Y354713D02*X351350Y353963D01*
X349100Y354713D02*X350600D01*
X348350Y353963D02*X349100Y354713D01*
X348350Y353963D02*Y352463D01*
X349100Y351713D01*
X350600D01*
X351350Y352463D01*
X348350Y350213D02*X349100Y349463D01*
X350600D01*
X351350Y350213D01*
Y354713D02*Y350213D01*
M02*
